<?xml version="1.0" encoding="utf-8"?>
<!DOCTYPE svg PUBLIC "-//W3C//DTD SVG 20010904//EN" "http://www.w3.org/TR/2001/REC-SVG-20010904/DTD/svg10.dtd">
<svg version="1.0" xmlns="http://www.w3.org/2000/svg" width="3248px" height="1884px" viewBox="0 0 3248 1884" preserveAspectRatio="xMidYMid meet">
 <g fill="#ffffff">
  <path d="M0 941.9 l0 -941.9 519.5 0 519.5 0 0 55 0 55 6.2 0 c9.8 0 29.4 4.8 40.8 10.1 5.7 2.6 10.8 5.2 11.1 5.7 0.4 0.5 3.5 3 6.8 5.4 9.8 7.2 25.4 24.4 25.4 28.1 0 0.6 0.5 1.4 1 1.6 1.5 0.5 7.7 13 9 17.7 0.5 2.1 1.9 6.2 3.1 9.3 1.9 4.6 2.2 9.8 2.2 29.7 0 22.9 -0.1 24.6 -3.3 34.5 -3.1 9.3 -4.9 13.6 -8.4 19.9 -0.6 1 -2.1 3.8 -3.5 6.2 -1.4 2.4 -4 6.1 -5.9 8.2 -8.2 9.2 -16.7 17.8 -17.3 17.8 -0.5 0 -1.9 0.9 -3.1 2.1 -2.7 2.4 -5.2 3.8 -15.8 9.2 -12.6 6.2 -17.7 7.9 -28.6 9.6 -4.5 0.7 -10.8 1.4 -13.9 1.4 l-5.8 0 0 188.5 0 188.4 14.6 0.6 c14 0.7 21 2 39.2 7.4 11.9 3.6 32 12.7 36.6 16.6 1 1 2.4 1.7 2.8 1.7 1.4 0 11.1 6.7 12.2 8.3 0.5 0.9 1.6 1.6 2.4 1.6 0.7 0 2.2 0.9 3.3 1.9 20.9 20.2 26.1 25.4 26.1 26.5 0 0.6 0.9 1.7 2 2.4 1 0.6 2.6 2.2 3.3 3.6 0.9 1.4 3.1 4.9 5.2 7.9 5.7 8.4 6.3 9.4 13.6 24.4 3.7 7.7 6.8 14.6 6.8 15.5 0 0.7 1.1 4.8 2.4 8.9 6.9 21.3 10 49 7.9 70.3 -3.2 30.8 -12.7 60.4 -26.3 81.3 -2 3.1 -4.1 6.4 -4.6 7.4 -1.9 4.1 -15 19.7 -23.6 28.2 -7.8 7.7 -17.7 15.5 -26.1 20.7 -1.1 0.7 -2.2 1.6 -2.6 2.1 -2.6 3.3 -33.1 17.2 -43.3 19.5 -2.4 0.5 -6.8 1.9 -9.9 3.1 -3.1 1.1 -13.6 2.7 -23.5 3.7 -9.9 0.9 -18.1 1.7 -18.2 1.7 -0.2 0.1 -0.4 182.7 -0.4 405.8 l0 405.7 17.3 0 c9.5 0 17.3 -0.5 17.3 -1.1 0 -0.5 9 -1.4 20.2 -1.7 11 -0.4 27.3 -1.5 36.1 -2.6 8.9 -1.1 20.3 -2.5 25.4 -3.1 31 -3.8 83.1 -14 114.7 -22.5 4.8 -1.2 9.9 -2.4 11.1 -2.4 1.2 0 3.7 -0.7 5.4 -1.7 1.9 -0.9 6.3 -2.4 9.9 -3.2 3.7 -0.9 9.5 -2.6 12.9 -3.8 3.5 -1.2 10.6 -3.6 16.1 -5.3 14.7 -4.6 21.5 -6.9 29.1 -10 3.7 -1.5 8.8 -3.5 11.1 -4.3 11.9 -4.2 14.5 -5.2 17.9 -6.7 2.1 -1 6.8 -3 10.5 -4.5 11.8 -4.7 21.3 -8.9 45.8 -20.8 8.5 -4 16.8 -7.9 18.6 -8.8 1.7 -0.7 7.5 -3.8 13 -6.9 5.4 -3.1 12.1 -6.7 14.8 -8 7.2 -3.6 19.5 -10.8 21.2 -12.1 0.7 -0.7 3.6 -2.5 6.2 -3.8 2.6 -1.5 7.1 -4.1 9.8 -5.7 2.7 -1.7 6.1 -3.6 7.4 -4.2 1.5 -0.6 3.3 -2 4.2 -3.1 0.9 -1.1 2.1 -2 2.7 -2 0.9 0 8.4 -4.6 11.6 -7.2 0.7 -0.5 7.8 -5.3 15.7 -10.6 7.9 -5.3 15.3 -10.8 16.6 -12 1.1 -1.2 2.8 -2.4 3.8 -2.4 0.9 0 1.6 -0.4 1.6 -0.9 0.1 -0.6 3 -3 6.4 -5.3 3.5 -2.4 7.2 -5.3 8.2 -6.4 1.1 -1.2 2.5 -2.2 3 -2.2 0.6 0 2 -0.9 3.2 -2 1.1 -1 5.7 -4.8 10.1 -8.3 4.5 -3.6 8.9 -7.1 9.9 -7.9 20.4 -16.7 23.9 -19.7 33.8 -29.1 2.6 -2.6 5.1 -4.7 5.3 -4.7 0.4 0 3.2 -2.6 6.6 -5.8 27.7 -27.5 40.1 -39.8 46.3 -46.5 3.8 -4.2 9.8 -10.5 13 -14 3.2 -3.5 8.9 -10 12.6 -14.6 3.6 -4.5 7.1 -8.2 7.7 -8.2 0.5 0 1 -0.9 1 -1.9 0 -1 1.1 -2.4 2.5 -3.1 1.4 -0.7 2.5 -2.1 2.5 -3.1 0 -1 1.1 -2.4 2.5 -3.1 1.4 -0.7 2.5 -1.9 2.5 -2.5 0 -0.6 1.2 -2.5 2.8 -4.1 4.6 -4.8 7.8 -8.9 8.7 -11.1 0.4 -1.1 1.4 -2.1 2.1 -2.1 0.7 0 1.9 -1.2 2.5 -2.7 0.7 -1.6 4.1 -6.4 7.4 -10.9 3.3 -4.5 6.7 -9.3 7.4 -10.8 0.6 -1.6 1.7 -2.8 2.4 -2.8 0.6 0 2.5 -2.2 4 -4.9 1.6 -2.7 3.2 -4.9 3.8 -4.9 0.5 0 1 -0.6 1 -1.5 0 -0.7 1 -2.5 2.1 -3.7 1.1 -1.2 3.7 -4.9 5.8 -8.3 2.1 -3.3 5.8 -9 8.2 -12.7 6.7 -10.4 7.2 -11.3 9.9 -15.8 1.4 -2.4 3.2 -5.4 4.1 -6.7 7.7 -12.1 12 -19.5 12 -20.4 0 -0.6 0.7 -2 1.6 -2.8 0.9 -0.9 2.5 -3.2 3.6 -5.3 7.3 -14.3 13.7 -26.1 14.7 -27.1 0.6 -0.7 1.1 -2.2 1.1 -3.3 0 -1.2 0.4 -2.4 1 -2.6 1.1 -0.5 9.9 -18.4 22.1 -45.5 9.3 -20.3 20.2 -47.5 27.7 -69.5 0.7 -2.2 2.4 -6.8 3.6 -10.3 2.1 -6.3 6.1 -18.9 10 -32.2 1.2 -4.1 3.6 -11.9 5.3 -17.3 1.7 -5.4 3.2 -11.1 3.2 -12.5 0 -1.4 1 -5.8 2.4 -9.9 2.2 -6.9 4.6 -17.4 9.9 -43.8 6.9 -34.9 8 -41.1 8.9 -50.7 0.5 -5.8 1.5 -13.1 2.2 -16.2 0.7 -3.2 1.9 -13.5 2.6 -22.9 0.7 -9.5 2 -23 2.7 -30.2 2.5 -20.9 2.1 -103.9 -0.6 -134.8 -2.7 -30.7 -6.1 -56.8 -10.1 -79.2 -1.7 -9.2 -3.1 -18.2 -3.1 -19.9 0 -1.9 -0.9 -5.6 -1.9 -8.4 -1 -2.8 -2.1 -8 -2.6 -11.6 -0.4 -3.6 -1.7 -10.3 -3 -15.1 -5.2 -20.4 -6.3 -25 -7.4 -30.3 -0.5 -3.1 -2.2 -8.7 -3.6 -12.4 -1.5 -3.7 -2.6 -8 -2.6 -9.5 0 -1.5 -1.1 -5.2 -2.5 -8.4 -1.4 -3.2 -2.5 -6.9 -2.5 -8.3 0 -1.4 -0.7 -4.2 -1.7 -6.3 -0.9 -2.2 -3.5 -9.5 -5.6 -16.3 -2.2 -6.7 -4.7 -14 -5.6 -16.1 -0.9 -2 -2.6 -6.4 -3.7 -9.9 -2.1 -5.9 -3.7 -9.8 -9.5 -24.4 -1.5 -3.6 -3.5 -8.8 -4.5 -11.4 -1 -2.7 -4 -9.6 -6.7 -15.5 -2.8 -5.8 -7.1 -15.1 -9.5 -20.5 -2.5 -5.4 -6.9 -14.5 -9.8 -20.3 -3 -5.7 -5.3 -11.1 -5.3 -12 0 -0.9 -0.5 -1.7 -1.1 -2 -0.6 -0.2 -3.6 -5.1 -6.6 -10.9 -9.4 -17.9 -14.8 -27.7 -16.5 -29.7 -0.9 -1 -2.5 -3.5 -3.6 -5.6 -1.1 -2 -3.1 -5.3 -4.5 -7.4 -1.2 -2 -3.5 -6.1 -4.9 -9 -1.5 -2.8 -3.2 -5.2 -3.8 -5.2 -0.6 0 -1.1 -0.5 -1.1 -1.2 0 -0.6 -2.1 -4.3 -4.6 -8.2 -2.6 -3.8 -6.4 -9.6 -8.5 -13 -2.1 -3.3 -4.7 -7.1 -5.8 -8.3 -1.1 -1.2 -2.1 -3 -2.1 -3.7 0 -0.9 -0.5 -1.5 -1 -1.5 -0.5 0 -2 -1.9 -3.2 -4.1 -1.4 -2.1 -3.1 -4.8 -4.1 -5.8 -3.5 -3.8 -17.7 -23.7 -17.7 -24.7 0 -0.6 -0.7 -1.6 -1.6 -2.1 -0.9 -0.5 -2.5 -2.4 -3.6 -4.1 -1.1 -1.7 -4 -5.2 -6.4 -7.9 -2.5 -2.6 -4.5 -5.2 -4.5 -5.8 0 -0.6 -1.1 -1.6 -2.5 -2.4 -1.4 -0.7 -2.5 -2 -2.5 -2.8 0 -0.9 -1.9 -3.5 -4.1 -5.8 -2.2 -2.4 -7.4 -8.2 -11.5 -13 -12.6 -14.8 -14.6 -16.9 -20.5 -22.9 -3.3 -3.1 -5.9 -5.9 -5.9 -6.4 0 -0.9 -37.2 -38.1 -38.1 -38.1 -0.4 0 -4.2 -3.6 -8.5 -8 -4.3 -4.5 -8 -8 -8.4 -8 -0.2 0 -1.9 -1.2 -3.3 -2.7 -5.6 -5.3 -18.9 -16.8 -29.4 -25.2 -5.8 -4.6 -10.8 -8.8 -11.1 -9.2 -0.4 -0.4 -2.8 -2.4 -5.6 -4.5 -7.8 -5.7 -8 -5.9 -10.3 -8.3 -1.1 -1.1 -2.7 -2.1 -3.5 -2.1 -0.9 0 -1.7 -0.4 -2 -1 -0.6 -1.4 -10.6 -8.9 -11.9 -8.9 -0.6 0 -2 -0.9 -2.8 -2 -1.4 -1.7 -12.4 -9.8 -18.3 -13.5 -8 -5.1 -13.2 -8.5 -13.7 -9.3 -0.4 -0.4 -4.1 -3 -8.4 -5.7 -4.3 -2.6 -9.3 -5.8 -11.1 -6.9 -1.9 -1.2 -5.3 -3.3 -7.7 -4.7 -6.1 -3.5 -8.7 -5.2 -13 -8.2 -2 -1.4 -5.6 -3.2 -7.7 -4.1 -2.2 -1 -4.1 -2.1 -4.1 -2.7 0 -0.6 -1.1 -1.1 -2.5 -1.1 -1.4 0 -2.5 -0.5 -2.5 -1.1 0 -0.6 -2.1 -2 -4.6 -3.2 -2.6 -1.1 -7.4 -3.6 -10.9 -5.6 -7.2 -4.1 -40.4 -20.7 -49.5 -24.6 -3.3 -1.6 -8.2 -3.8 -10.6 -5.2 -2.5 -1.2 -5.3 -2.4 -6.2 -2.4 -1 0 -3.1 -1.1 -4.8 -2.5 -1.7 -1.4 -3.8 -2.5 -4.7 -2.5 -0.9 0 -4 -1.1 -6.7 -2.5 -2.8 -1.4 -5.8 -2.5 -6.4 -2.5 -0.7 -0.1 -3.6 -1.1 -6.3 -2.5 -2.7 -1.4 -5.6 -2.4 -6.4 -2.5 -0.7 0 -3.5 -1 -6.2 -2.4 -2.6 -1.2 -6.7 -3 -9 -3.7 -2.4 -0.9 -8.8 -3.2 -14.2 -5.2 -5.4 -2.1 -12.4 -4.5 -15.5 -5.4 -17.4 -5.3 -22 -6.7 -25.4 -7.8 -2 -0.7 -7.5 -2.5 -12.4 -4 -4.7 -1.6 -10.6 -3.2 -13 -3.7 -2.4 -0.5 -12.1 -2.8 -21.6 -5.2 -23.5 -5.9 -62.5 -14 -72.4 -15 -2.4 -0.2 -11.3 -1.6 -19.8 -3.1 -20.8 -3.5 -59.1 -7.7 -70 -7.7 -4.8 0 -14.7 -0.4 -21.9 -0.9 -11.8 -0.6 -13.2 -1 -13.2 -3.1 0 -2.1 30.8 -2.2 1093.4 -2.2 l1093.4 0 0 486.1 c0 431.3 -0.2 486.1 -1.9 486.1 -1.2 0 -1.9 -1.2 -1.9 -3.7 0 -2 -0.5 -3.7 -1.1 -3.7 -0.6 0 -1.4 -2.6 -1.7 -5.8 -0.7 -7.4 -4.7 -21.3 -8.3 -29.4 -6.4 -14.2 -9 -19.2 -10.6 -20.5 -1 -0.7 -1.7 -1.9 -1.7 -2.5 0 -0.6 -1.7 -3.5 -3.7 -6.3 -2.1 -3 -4.7 -6.7 -5.9 -8.4 -3.6 -5.2 -21.8 -22.6 -27.6 -26.5 -3 -2 -6.8 -4.5 -8.5 -5.6 -7.1 -4.6 -21.2 -9.5 -35.7 -12.6 -14.2 -3 -37.7 0.2 -56.4 7.8 -5.8 2.4 -7.5 3.1 -17.9 7.8 -2.4 1 -5.7 2.7 -7.4 3.7 -1.7 1 -5.2 1.9 -7.7 1.9 l-4.7 0 0 -83.1 c-0.1 -95.1 0.6 -89.3 -9.8 -86 -10.5 3.3 -22.8 13 -27.6 21.5 -2.1 3.6 -2.2 16.2 -2.2 215.3 0 178.9 0.2 211.6 1.7 212.9 1.4 1.1 3.2 0.9 8 -1.1 3.6 -1.4 7.1 -3 7.9 -3.7 7.7 -6.2 9.8 -7.4 12.7 -7.4 2 0.1 5.8 1.1 8.5 2.5 2.7 1.4 5.7 2.4 6.6 2.5 0.9 0 3.8 1 6.8 2.4 12 5.3 36 7.2 53.4 4 9.2 -1.6 20.2 -5.1 28.4 -8.8 2.7 -1.2 6.8 -3 9 -4 2.1 -0.9 4 -2 4 -2.5 0 -0.6 0.9 -1 2 -1 4.2 0 31.8 -22.8 46 -37.8 12.6 -13.5 15.1 -16.3 15.1 -17.1 0 -1.1 7.9 -12.5 8.9 -12.9 0.5 -0.2 1 -1.1 1 -1.9 0 -0.9 2.6 -6.4 5.6 -12.6 3.1 -6.1 5.6 -12 5.6 -13 0 -1 1.1 -5.2 2.5 -9.2 1.4 -4.1 2.5 -9.4 2.5 -12.1 0 -2.6 0.6 -4.7 1.2 -4.7 0.7 0 1.2 -1.6 1.2 -3.7 0 -2.5 0.6 -3.7 1.9 -3.7 1.6 0 1.9 49.7 1.9 440.3 l0 440.3 -1624 0 -1624 0 0 -941.9z m737.8 869.4 c10 -1.7 18.9 -4.6 26 -8.3 10.3 -5.4 12.1 -6.6 12.6 -7.9 0.4 -0.9 1.2 -1.6 2.1 -1.6 0.7 0 2.4 -1 3.5 -2.1 1.1 -1.2 4.1 -3.8 6.4 -5.9 2.5 -2 4.5 -4.1 4.5 -4.5 0 -0.5 1.6 -2.6 3.6 -4.7 1.9 -2.1 4.5 -5.8 5.7 -8.4 1.2 -2.6 2.8 -5.6 3.7 -6.6 2.7 -3.1 6.8 -16.2 8.8 -27.7 1.6 -9.5 1.6 -12.5 0 -22.9 -1.6 -11.1 -2.7 -14.6 -7.5 -25.1 -2 -4.3 -2.7 -5.6 -8.7 -14.6 -4.6 -7.1 -14.6 -17.1 -21.6 -21.6 -9 -5.9 -10.4 -6.8 -13.6 -8.2 -1.7 -0.7 -5.6 -2.5 -8.7 -3.8 -3.1 -1.4 -10.8 -3.3 -17.2 -4.2 -17.2 -2.6 -31.8 -0.1 -50.2 8.3 -4.6 2.1 -11.1 6.3 -11.5 7.4 -0.2 0.6 -1.1 1.1 -1.9 1.1 -2 0 -12.7 10.3 -18.4 17.3 -17.6 22 -24.1 50.2 -17.2 74.8 3.2 11.9 6.1 19 8.2 21.3 1 1 1.9 2.5 1.9 3.3 0 0.9 1.4 3.1 3.1 4.9 1.7 1.9 3.1 3.7 3.1 4.1 0 0.9 1.6 2.6 8.2 9 2.4 2.4 5.3 5.3 6.4 6.6 1.1 1.1 2.7 2.1 3.7 2.1 0.9 0 1.9 0.7 2.2 1.7 0.4 1 3 3 5.8 4.3 2.8 1.5 6.1 3.1 7.1 3.7 4.3 2.7 16.2 6.4 25.4 8 12.9 2.2 11.9 2.2 24.7 0z m-324.1 -89.3 c15.1 -4.6 21 -6.8 28.7 -10.5 7.4 -3.7 15.6 -8.3 16.5 -9.4 0.4 -0.4 3.8 -2.8 7.8 -5.4 3.8 -2.5 7.1 -5.2 7.1 -5.8 0 -0.7 0.7 -1.2 1.5 -1.2 3 0 25.5 -25.1 31.3 -34.9 7.5 -12.6 10.5 -18.8 16.7 -34.4 4.3 -11 8.7 -35.6 8.7 -48.5 -0.1 -20.7 -8.4 -52.6 -18.1 -69 -1 -1.7 -2.5 -4.6 -3.1 -6.4 -0.7 -2 -1.7 -3.5 -2.2 -3.5 -0.5 0 -1.6 -1.5 -2.5 -3.2 -4.1 -9.2 -33.1 -39.7 -40.2 -42.4 -0.6 -0.2 -2.7 -1.9 -4.3 -3.5 -1.7 -1.5 -3.8 -2.8 -4.7 -2.8 -0.7 0 -2.2 -0.7 -3.1 -1.6 -1.4 -1.4 -11.4 -6.4 -21.4 -10.9 -14.5 -6.3 -38.8 -11.3 -56 -11.3 -20.3 0 -44.3 5.8 -65.2 16 -13 6.2 -13.7 6.7 -23.3 13.7 -3.8 2.8 -7.3 5.2 -7.7 5.2 -0.4 0 -2.7 2.2 -5.4 4.9 -2.6 2.7 -5.4 4.9 -6.2 4.9 -0.7 0 -1.4 0.5 -1.4 1.1 0 0.6 -2.2 3.5 -4.9 6.3 -2.7 2.8 -4.9 5.7 -4.9 6.2 0 0.6 -0.7 1.6 -1.6 2.1 -0.9 0.5 -2.5 2.5 -3.6 4.2 -1.1 1.7 -2.8 4.1 -3.7 4.9 -6.1 6.7 -21.3 40.6 -22.9 51.2 -0.2 2.1 -1.4 8 -2.5 13.5 -1 5.3 -1.9 14.8 -1.7 21 0 12.1 3.5 33.8 6.8 42.8 1.1 3.1 3 7.9 4 10.9 1.7 4.9 8.5 18.8 13 26.2 6.9 11.8 24.4 31.3 35.7 40 3.7 2.8 7.1 5.6 7.2 6.2 0.2 0.5 1 0.9 1.7 0.9 0.6 0 3 1.2 5.1 2.8 12.7 8.9 27 15.1 48.5 20.8 13.1 3.5 14.5 3.6 35.9 3.1 20.7 -0.4 23.1 -0.6 34.6 -4.2z m463.1 -203.7 c4.1 -1.1 9.9 -3.3 13 -5.1 9 -5.1 19.4 -16.2 24.1 -25.9 4.1 -8.2 4.3 -9.4 4.3 -21.6 0 -12.2 -0.2 -13.5 -4.1 -21.3 -2.4 -4.7 -4.6 -8.4 -5.2 -8.4 -0.6 0 -1.1 -0.6 -1.1 -1.4 0 -2.1 -12.2 -13.2 -17.9 -16.3 -6.8 -3.7 -18.7 -6.9 -25.4 -7.1 -6.8 0 -19.3 3.8 -25.7 7.9 -8.2 5.2 -22.5 20.4 -22.5 24 0 0.6 -1.4 4.5 -3.1 8.7 -4.5 11 -4.1 17.3 2.1 33.6 3.8 10 15.5 22.6 26.8 28.9 9.6 5.3 22.9 6.8 34.6 3.8z m1940.3 -35.5 c6.9 -3.2 10.4 -6.6 15 -14.2 l3.3 -5.8 0.5 -41.8 0.5 -41.8 -2.6 0 c-2.1 0 -2.6 0.7 -2.6 4.3 0 4 -0.4 4.3 -3.6 4.3 l-3.6 0 3.2 6.6 c3 5.8 3.3 7.8 3.3 20.7 0 11.1 -0.5 15.1 -2.1 18.4 -1.2 2.4 -2.2 4.8 -2.2 5.4 0 0.6 -1 2 -2.1 2.8 -2 1.5 -1.7 1.6 2 1.7 l4.2 0 -0.7 11.5 c-0.7 12.6 -3 19.2 -7.7 22.9 -10.9 8.5 -38.6 5.3 -40.7 -4.8 -0.6 -3.3 -3.7 -5.9 -5.2 -4.5 -1 0.9 2.5 7.3 5.2 9.6 8.8 7.8 24.9 9.9 35.9 4.6z m-592 -30.1 c2.1 -1.1 3.7 -2.1 3.7 -2.2 0 -0.1 -4.3 -0.1 -9.5 0.1 -8.4 0.4 -10.1 0 -14 -2.5 -10 -6.8 -14.5 -19.4 -13.2 -37.6 0.9 -12.2 4.1 -20.4 10 -25.2 3.2 -2.7 5.3 -3.2 15.6 -3.7 l11.8 -0.6 -6.6 -2 c-16 -5.1 -30.6 6.1 -35.6 27.2 -2.1 8.8 -2.1 9.5 0 17.9 2.5 9.9 7.2 18.8 11.8 22.4 9.8 7.7 19 9.9 26.1 6.2z m96.2 -0.9 c5.2 -2.4 16.3 -12.4 16.3 -14.7 0 -0.5 -0.9 -1.1 -1.9 -1.5 -1.1 -0.5 -2.7 1 -4.6 4.5 -4.3 7.8 -10.5 10.8 -22.6 10.8 -12 0 -17.8 -2.8 -23.4 -11 -3.1 -4.6 -3.7 -7.1 -4.2 -15.2 l-0.6 -9.6 30.6 0 c23.5 0 30.4 -0.4 30.4 -1.5 -0.1 -0.9 -0.9 -4.8 -1.9 -8.8 -3.1 -13.1 -12.6 -23.3 -24.7 -26.3 -11.6 -3.1 -23.7 1.6 -32.3 12.4 -5.7 7.2 -9.8 20.7 -8.7 29.2 1 7.2 5.4 18.9 7.7 20.2 1 0.5 1.7 1.6 1.7 2.4 0 1.7 5.7 6.1 12.4 9.3 7.5 3.6 17.9 3.7 25.7 0.1z m128.9 -0.4 c7.2 -3.6 11.6 -8 15 -14.7 2.8 -5.9 2.8 -5.7 0 -5.7 -1.6 0 -3 1.7 -4.6 6.4 -1.7 4.8 -3.6 7.3 -7.3 9.9 -4.3 3 -6.1 3.3 -15 3.5 -9.3 0 -10.4 -0.2 -15.2 -3.7 -8.5 -6.2 -10.5 -12.2 -10.5 -31.5 0 -13.9 0.4 -16.8 2.6 -21.6 4.9 -10.3 9.2 -12.4 24.5 -12.4 l11.9 0 4.2 4.5 c2.4 2.4 4.3 5.6 4.6 7.1 0.2 1.5 1.4 2.8 2.6 3.1 2 0.4 2.2 0 1.5 -2.5 -3.6 -11.4 -19.4 -18.8 -32.4 -15.3 -7.7 2.1 -18.9 9.6 -18.9 12.7 0 0.4 -0.9 1.7 -1.9 2.8 -1 1.1 -2.8 6.6 -4 12.1 -1.9 8.8 -1.9 11 -0.5 18.4 2.1 10.3 4 14.2 9.8 20 9.9 9.9 22.6 12.5 33.6 6.9z m94.5 2.4 c1.1 -0.4 2 -1.9 2 -3.1 0 -1.9 -0.9 -2.4 -4.2 -2.4 -2.4 0 -5.7 -0.5 -7.4 -1.2 l-3.2 -1.2 0 -32.2 0 -32.2 6.8 0 c3.7 0 6.8 -0.5 6.8 -1.2 0 -0.6 -3.1 -1.2 -6.8 -1.2 l-6.7 0 -0.4 -12.5 -0.4 -12.5 -2.7 2.5 c-2.5 2.1 -2.8 3.6 -2.8 12.5 l0 10 -4.9 0 c-2.7 0 -4.9 0.6 -4.9 1.2 0 0.7 2.2 1.2 4.9 1.2 l4.9 0 0 29.1 c0 34.3 0.6 37.6 8 41.3 5.2 2.7 7.8 3.1 11 1.9z m62 -1.7 c2.7 -1.4 5.3 -2.5 5.9 -2.5 0.6 0 3.7 -2.5 6.7 -5.4 6.1 -6.2 11.4 -18.7 11.5 -27.1 0 -5.3 -2.2 -15.7 -3.8 -17.4 -0.6 -0.7 -1.1 -2.1 -1.1 -3.1 0 -2.5 -7.9 -11.3 -13 -14.6 -6.7 -4.3 -15.8 -5.6 -24.4 -3.5 -8.3 2.2 -9 2.7 -16.6 10.3 -6.3 6.4 -9.8 15.8 -9.6 26.8 0.1 8.2 3.3 20.7 6.2 23.4 1 1 1.7 2.4 1.7 2.8 0 1.6 7.1 6.8 13.6 9.9 7.3 3.5 16.5 3.6 22.9 0.4z m124.9 -1.1 c7.9 -3.7 12 -7.5 16.7 -15.6 2.6 -4.5 3 -6.4 3.1 -19.2 0 -13 -0.2 -14.7 -3.1 -19.8 -3.3 -5.8 -8.9 -12.4 -10.5 -12.4 -0.6 0 -2 -0.9 -3.2 -2 -3.8 -3.5 -15.3 -5.7 -21.3 -4.2 -7.4 2 -12 3.8 -12 5.1 0 0.6 -0.7 1.1 -1.6 1.1 -2.5 0 -8.2 6.8 -11.4 13.9 -4.5 9.4 -4.5 26.2 0 35.9 3.6 7.8 8.8 13.1 17.3 17.4 8.5 4.5 16.3 4.3 26 -0.2z m195.4 2.4 c1.7 -0.7 0.1 -1.1 -5.4 -1.1 -8.9 -0.1 -16.3 -3.5 -18.6 -8.4 -1.5 -3.3 -1.9 -16.5 -0.4 -18.3 2.8 -4 7.7 -6.1 20.8 -8.9 8.2 -1.7 17.7 -3.5 21.3 -3.7 l6.4 -0.6 0 11 c0 8.7 -0.5 11.8 -2.5 15 -3.1 5.1 -3.1 5.2 0.6 5.2 1.9 0 3.1 0.7 3.1 1.9 0 3.2 2.8 8 4.8 8 1.7 0 1.9 -1.4 1.1 -10.1 -0.4 -5.7 -0.9 -18.6 -0.9 -28.7 -0.1 -10.1 -0.7 -20.5 -1.6 -23.1 -2.8 -9.9 -18.1 -16.2 -32.5 -13.5 -8.7 1.6 -14.2 3.6 -14.2 5.1 0 0.6 -0.7 1.1 -1.7 1.1 -1.5 0 -8.2 8.3 -8.2 10.3 0 0.5 0.9 0.9 1.9 0.9 1 0 2.8 -2.1 4.2 -4.7 4.1 -7.9 6.7 -8.9 23.1 -8.9 l14.3 0 4.2 4.2 c4.1 4.1 4.2 4.6 4.2 13.6 0 10.9 2.7 9.3 -23.1 13.6 -20.8 3.5 -26.2 6.3 -31 16.1 l-3.1 6.1 3.2 6.6 c2.6 5.3 4.5 7.2 9.2 9.6 6.2 3.2 15.8 4.1 20.8 2z m-677.2 -53.2 l0 -53.2 -3.7 0 -3.7 0 0 20.4 c0 19.5 -0.1 20.4 -2.5 20.4 -2.8 0 -3.1 0.9 -0.9 3.6 6.1 7.2 5.9 42.8 -0.1 50 -1.7 1.9 -1.6 2.1 1.4 2.1 3.1 0 3.3 0.4 3.3 4.9 0 4.5 0.4 4.9 3.1 4.9 l3.1 0 0 -53.2z m244.9 16.1 l0 -37.1 -3.1 0 -3.1 0 0 37.1 0 37.1 3.1 0 3.1 0 0 -37.1z m165.7 -16.1 l0 -53.2 -3.1 0 -3.1 0 0 53.2 0 53.2 3.1 0 3.1 0 0 -53.2z m148.7 51.1 c8 -3.1 7.8 -3.5 -1.7 -3.1 -11.9 0.6 -16.1 -0.4 -20.8 -4.9 -11.1 -10.6 -11.6 -46.1 -0.9 -56.2 4.9 -4.6 7.9 -5.4 18.9 -5.4 11.5 0 12.5 -0.9 3.3 -3.2 -11.8 -3 -23.9 3.5 -30.8 16.3 -4.5 8 -6.2 20 -4.2 28.6 2 8.5 8.3 19.8 13.4 23.5 3.5 2.5 12.9 6.4 16 6.6 0.9 0 4 -0.9 6.8 -2.1z m61.6 -35 l0 -37.1 -3.1 0 -3.1 0 0 37.1 0 37.1 3.1 0 3.1 0 0 -37.1z m-2687.7 -44.4 c6.4 -1.1 19 -6.3 26.2 -11 6.9 -4.5 14.5 -10.9 14.6 -12.2 0 -0.9 1.1 -2.1 2.5 -2.8 1.4 -0.7 2.5 -2.1 2.5 -3 0 -1 0.7 -2.4 1.7 -3.1 2.2 -1.9 7.1 -12 10.8 -22.4 3.8 -10.6 3.8 -23.5 0 -34.6 -3.1 -9.4 -10 -23.5 -11.5 -23.5 -0.5 0 -1 -0.7 -1 -1.6 0 -0.9 -1.4 -2.8 -3.1 -4.3 -1.7 -1.5 -3.1 -3.2 -3.1 -4 0 -0.6 -0.9 -1.2 -1.9 -1.2 -1.1 0 -2.2 -0.7 -2.6 -1.7 -1 -2.6 -14.6 -11.5 -21.5 -14.1 -11.1 -4.2 -16.2 -5.2 -26.2 -5.2 -11.8 0 -17.6 1.5 -30.7 7.8 -8.7 4.2 -9.9 5.2 -18.2 12.5 -5.7 5.1 -16.5 19.5 -16.5 22.1 0 0.9 -0.9 2.7 -1.9 4.1 -1.9 2.7 -3.7 10 -5.4 20.7 -1.1 6.8 2.1 26.1 5.3 32.4 1.1 2.1 2 4.1 2 4.6 0 2.2 9.8 14.6 16.8 21.5 8.8 8.4 26 17.7 35.1 19.2 8.4 1.2 18.4 1.2 26 0z m2311.7 -20.5 c0 -3.8 -0.4 -4.3 -3.1 -4.3 -2.7 0 -3.1 0.5 -3.1 4.3 0 3.8 0.4 4.3 3.1 4.3 2.7 0 3.1 -0.5 3.1 -4.3z m376 0 c0 -3.8 -0.4 -4.3 -3.1 -4.3 -2.7 0 -3.1 0.5 -3.1 4.3 0 3.8 0.4 4.3 3.1 4.3 2.7 0 3.1 -0.5 3.1 -4.3z m-562.9 -36 c0.2 -0.2 -3 -0.5 -7.2 -0.5 -14 0 -19.8 -4.9 -19.9 -16.9 0 -6.8 0.5 -8.3 3.5 -11.4 2.8 -3.2 5.2 -4.1 16.9 -6.3 7.5 -1.5 15.6 -3.1 18.1 -3.8 2.5 -0.6 5.9 -1.1 7.8 -1.1 l3.2 0 0 10.5 c0 8.2 -0.6 11.8 -2.5 15.5 l-2.5 4.9 3.1 0 c1.9 0 3.1 0.7 3.1 1.9 0 3.3 2.8 8 4.8 8 1.7 0 2 -1.4 1.7 -8.9 -0.2 -4.9 -0.5 -17.9 -0.7 -28.8 -0.5 -27.8 -3.5 -33.3 -20 -37.1 -8 -1.9 -9.3 -1.9 -17.7 0.1 -9.6 2.2 -12.9 4.2 -18.8 11.5 -3 3.5 -3.1 5.1 -0.7 5.1 1 0 3.1 -2.4 4.7 -5.2 4 -7.2 8.8 -8.8 25.6 -8.2 l12.9 0.5 3.6 4.2 c3.3 4.1 3.6 4.9 3.2 13.5 -0.4 10.8 0.6 10 -18.3 12.5 -14.2 1.9 -25.5 5.2 -29.8 9 -1.7 1.5 -4.5 5.3 -6.1 8.4 l-3 5.7 3.2 6.1 c3.2 6.3 9.9 11.3 17.6 12.9 3.5 0.7 12.9 -0.5 14.2 -2z m184.7 0 c1.9 -1 4.1 -1.7 4.9 -1.7 3 0 13 -10.4 15.8 -16.6 2.5 -5.1 2.8 -8 2.8 -18.6 0 -11.3 -0.4 -13.1 -3.3 -18.9 -2 -3.6 -4 -6.6 -4.5 -6.6 -0.6 0 -1.5 -1.1 -1.9 -2.5 -0.4 -1.4 -1.5 -2.5 -2.4 -2.5 -1 0 -2.4 -0.9 -3.2 -1.9 -0.9 -1 -5.2 -3 -9.6 -4.3 -7.7 -2.4 -8.3 -2.5 -15.6 -0.5 -4.2 1.2 -8.7 3.1 -10.1 4.5 -1.4 1.2 -3 2.2 -3.5 2.2 -1.4 0 -5.8 5.8 -9.4 12.4 -2.6 4.9 -3 7.1 -3 18.6 0 11.9 0.2 13.6 3.5 19.5 4.6 8.5 11.4 14.2 20.9 17.3 7.9 2.6 12.4 2.5 18.4 -0.5z m129 0.6 c1.7 -0.6 0.1 -1 -4.6 -1 -15.1 -0.2 -21.6 -6.2 -20.5 -18.9 0.9 -10.6 3.2 -12.4 22.6 -16.5 8.9 -1.9 18.6 -3.7 21.5 -4 l5.3 -0.6 -0.5 11.5 c-0.2 7.3 -1.2 13.1 -2.5 15.7 -2 4 -2 4 1 4 2.2 0 3.1 0.9 3.7 3.5 1.2 5.7 1.6 6.4 3.2 6.4 1.2 0 1.5 -6.3 1.2 -30.6 -0.5 -29.2 -0.6 -30.7 -3.3 -34.9 -5.9 -9.5 -22.6 -13.2 -37 -8.3 -9 3.1 -12.6 5.6 -15.6 10.9 -2.6 4.6 -2.6 4.7 -0.2 4.7 1.6 0 3 -1.2 3.8 -3.3 0.6 -2 2.5 -4.8 3.8 -6.6 2.5 -2.8 3.7 -3.1 15.2 -3.5 21.5 -0.7 26.8 3.1 26.8 19.2 l0 7.7 -4.6 1.2 c-2.6 0.6 -10.8 2.2 -18.3 3.6 -19.9 3.7 -20.5 4 -26.2 9.3 -11.5 10.8 -7.3 24.9 8.9 30.4 7.1 2.4 10.1 2.4 16.1 0z m143.5 -0.9 c7.5 -2.6 14.3 -8.5 19.2 -17.1 3.5 -5.9 3.7 -7.3 3.7 -19 0 -11.4 -0.4 -13.2 -3.3 -18.9 -3.1 -5.6 -5.8 -8.8 -12.2 -14.3 -1.1 -1 -5.6 -2.7 -9.9 -4 -7.1 -2 -8.4 -2 -15 -0.2 -11 2.7 -17.1 7.7 -23.1 18.8 -3.2 5.9 -3.5 7.7 -3.5 18.8 0 11 0.2 12.7 3.3 18.1 4.2 7.3 12.9 16.5 15.5 16.5 1.1 0 2.5 0.4 3 1 1.5 1.5 11.1 3.7 13.7 3.1 1.4 -0.2 5.3 -1.5 8.7 -2.6z m174.3 0.2 c10.6 -3.5 19.2 -12.1 22.3 -22.8 3.3 -11.4 3 -19.9 -1.1 -29.9 -4.3 -10.9 -11.4 -17.3 -22.6 -20.8 l-8.2 -2.6 -8.3 2.6 c-10.4 3.2 -17.2 9 -21.6 18.3 -7.3 15.3 -4.6 35.3 6.4 46.6 2.8 3.1 6.8 6.2 8.8 6.9 4.9 2.1 14.3 4.6 15.8 4.2 0.7 -0.1 4.5 -1.4 8.5 -2.6z m-532.2 -0.4 c10.8 -4.8 18.6 -15.7 20.8 -29.2 4.6 -27.6 -16.5 -52.2 -37.2 -43.4 -2.6 1.1 -4.7 2.1 -4.7 2.4 0 0.1 3.7 0 8.2 -0.1 11.9 -0.6 16.1 0.5 20.7 5.4 5.7 6.3 7.3 12.6 7.4 28.3 0.2 19.5 -3.8 29.1 -14.3 33.8 -4.2 1.9 -18.7 2 -22 0.2 -1.2 -0.7 -2.4 -1 -2.4 -0.6 0 1.5 10.6 5.6 14.3 5.6 2.1 0 6.3 -1.1 9.3 -2.4z m296.5 -1 c0.4 -2.6 -0.1 -2.8 -5.2 -2.8 -4.3 0 -5.9 -0.6 -6.9 -2.4 -0.7 -1.5 -1.2 -14.2 -1.2 -32.8 l0 -30.4 6.8 0 c5.2 0 6.8 -0.4 6.8 -1.9 0 -1.5 -1.6 -1.9 -6.8 -1.9 l-6.8 0 0 -12.5 0 -12.5 -2.7 1.7 c-2.5 1.7 -2.8 3.1 -3.2 12.6 l-0.4 10.6 -4.8 0 c-3.6 0 -4.9 0.5 -4.9 1.9 0 1.4 1.4 1.9 4.8 1.9 l4.8 0 0.5 31.3 c0.2 25.7 0.7 31.8 2.2 33.6 5.6 6.8 16.3 8.9 17.1 3.5z m-448.7 -0.4 c0 -2.4 -0.9 -2.5 -27.8 -2.5 l-27.8 0 0 -50.1 0 -50.1 -3.7 0 -3.7 0 0 52.6 0 52.6 31.5 0 c30.7 0 31.5 -0.1 31.5 -2.5z m116.3 -2.4 c0 -3.8 0.5 -4.9 2.4 -5.3 2.2 -0.4 2.4 -0.6 0.5 -5.3 -3 -8 -3.6 -29.7 -1 -38.5 1.1 -4 3 -8.3 4 -9.4 1.9 -2.1 1.7 -2.2 -1.2 -2.2 l-3.3 0 0 -19.8 0 -19.8 -3.1 0 -3.1 0 0 52.6 c0 51.7 0 52.6 2.5 52.6 2.1 0 2.5 -0.9 2.5 -4.8z m175.6 -18.9 c0 -23.5 1.5 -35.1 4.8 -38.5 2.2 -2.2 1.6 -3.3 -1.7 -3.3 -2.7 0 -3.1 -0.5 -3.1 -4.3 0 -3.8 -0.4 -4.3 -3.1 -4.3 l-3.1 0 0 37.1 0 37.1 3.1 0 3.1 0 0 -23.7z m272.4 -3.7 c0.4 -23.6 0.7 -28.2 2.6 -31.5 l2.2 -4.1 -3.2 0 c-2.8 0 -3.1 -0.5 -3.1 -5.6 0 -4.7 -0.4 -5.6 -2.5 -5.6 -2.5 0 -2.5 0.9 -2.5 37.1 l0 37.1 3 0 3.1 0 0.4 -27.5z m52.9 -9.6 l0 -37.1 -3.1 0 -3.1 0 0 37.1 0 37.1 3.1 0 3.1 0 0 -37.1z m-2178 5.6 c3.7 -1 7.9 -1.9 9.3 -1.9 3.6 0 30.1 -10.5 31.4 -12.4 0.4 -0.5 2.6 -1.9 4.9 -3.1 6.1 -3 19.9 -14.3 27 -21.9 3.2 -3.6 6.8 -7.4 8 -8.7 1.1 -1.2 2.1 -2.7 2.1 -3.5 0 -0.6 0.7 -1.6 1.6 -2.1 1.6 -1 6.8 -9.3 13 -20.9 2.1 -3.7 5.9 -15.2 8.7 -25.2 8.3 -30.6 1.7 -67.7 -17.1 -97.3 -2.2 -3.6 -4.6 -6.6 -5.1 -6.6 -0.6 0 -1.1 -0.7 -1.1 -1.6 0 -2 -21.4 -24.4 -23.3 -24.4 -0.7 0 -1.9 -0.7 -2.4 -1.6 -0.9 -1.5 -4.7 -4 -13.4 -9.2 -26.2 -15.5 -56.5 -21.5 -83.5 -16.6 -16.3 3 -26.3 6.4 -40.1 13.6 -10.8 5.8 -16.9 9.9 -18.4 12.2 -0.5 0.7 -1.5 1.5 -2 1.5 -1.9 0 -14 11.8 -21.2 20.4 -3.8 4.8 -9.2 12.6 -11.8 17.3 -2.5 4.8 -5.1 9.3 -5.4 9.9 -1.5 2.2 -5.9 14.7 -8.9 24.7 -2.4 8.4 -2.7 12.7 -2.7 29.1 0 16.2 0.4 20.8 2.7 29.1 2.7 9.6 6.4 19.7 9.2 24.7 3.2 6.2 11.1 19.7 12.1 20.9 11.9 14.3 25.9 28.3 31.2 30.9 0.9 0.5 4 2.5 7.1 4.5 10.8 7.1 27.3 14.1 37.7 16.1 2.7 0.5 7.8 1.5 11.1 2.2 13.4 3 27 2.8 39.1 -0.4z m1880.5 -40.2 c0 -2.8 -5.9 -4.3 -10.3 -2.6 -2.1 0.9 -4.1 2.4 -4.5 3.3 -0.6 1.5 0.6 1.7 7.1 1.5 5.8 -0.2 7.7 -0.9 7.7 -2.2z m271.2 1 c1.7 -1.7 -1.5 -4.6 -5.4 -4.7 -3.2 0 -8.9 2.7 -9.8 4.7 -0.7 2 13.1 2.1 15.2 0z m-90 -27.6 c0 -0.7 1.1 -2.5 2.5 -3.7 2.8 -2.6 3.2 -4.3 0.9 -4.3 -1.6 0 -4 3.2 -5.8 8 -0.9 2.4 -0.7 2.8 0.6 2.2 1 -0.4 1.9 -1.4 1.9 -2.2z m116 -2.7 c0.4 -3.7 0.1 -4.1 -2.7 -4.1 -2.8 0 -3.2 0.5 -3.2 4.5 0 3.8 0.4 4.3 2.8 4 2.1 -0.2 2.8 -1.4 3.1 -4.3z m-823.8 -68.4 c1.7 0 11.9 -5.3 18.2 -9.4 1.7 -1.1 4.8 -4.5 6.9 -7.4 l3.6 -5.3 0.1 -80.8 c0 -63.2 0.4 -82.6 1.7 -89.4 0.9 -4.7 2.5 -12.9 3.5 -17.9 3.3 -17.9 10 -33.9 18.3 -43.9 6.4 -7.8 9.5 -10.1 18.7 -13.9 7.2 -2.8 8.8 -3.1 22.6 -2.6 15 0.6 22 2.1 34.4 7.5 l5.8 2.5 6.6 -2.8 c10.1 -4.7 19.4 -10 19.4 -11.3 0 -0.6 0.9 -1.1 1.9 -1.1 1.1 0 2.5 -1.2 3.1 -2.7 0.7 -1.6 1.9 -3.7 2.7 -4.9 1.9 -2.6 0.4 -4.5 -6.7 -8 -15.6 -7.8 -18.1 -8.4 -35 -8.4 -14.3 0 -17.2 0.4 -26.5 3.5 -10.3 3.3 -16.9 6.1 -21.6 8.5 -6.8 3.6 -11.8 6.6 -16.6 9.8 -3 2 -5.8 3.6 -6.4 3.6 -0.6 0 -1.6 0.7 -2.1 1.6 -0.5 0.9 -4.5 4.2 -8.7 7.4 -5.2 4 -8.8 5.8 -11.4 5.8 l-3.8 0 0 -18.9 c0 -18.7 0 -19 -3 -20.5 -2.5 -1.4 -3.8 -1.1 -10.1 2.1 -4 2.1 -8.9 5.2 -11 7.1 -2 1.7 -4.9 4.1 -6.4 5.2 -1.6 1 -2.8 2.7 -2.8 3.6 0 1 -0.5 1.7 -1.2 1.7 -0.6 0 -2 1.6 -3.1 3.7 -1.6 3.1 -1.9 20.2 -1.9 140.1 0 97 0.4 136.8 1.4 137.8 1 1 2.2 0.9 4.6 -0.4 1.9 -1 4.1 -1.7 4.9 -1.7z m260 0.1 c23 -6.8 46.1 -19.4 60.6 -33.1 2.4 -2.2 4.7 -4.1 5.3 -4.1 0.5 0 0.9 -0.5 0.9 -1.2 0 -0.6 1.9 -3 4.1 -5.2 4.5 -4.7 10.8 -12.6 12.7 -16.6 1.1 -2 1.1 -3.1 0.1 -4.1 -2 -2 -3.2 -1.7 -11.1 2.4 -4.7 2.4 -11 7.5 -18.6 15.1 -13.1 13.4 -19.4 17.3 -31.2 19.5 -12 2.2 -35.5 0 -43.8 -4.1 -2.4 -1.1 -4.8 -2.1 -5.4 -2.1 -0.7 0 -3 -1.2 -5.1 -2.8 -2.1 -1.5 -5.4 -3.6 -7.4 -4.6 -4.6 -2.4 -24.2 -21.8 -24.2 -23.9 0 -0.9 -1 -2.7 -2.2 -4.1 -1.2 -1.2 -3.1 -4 -4.1 -6.1 -1.1 -2 -2.5 -4.8 -3.3 -6.2 -0.7 -1.4 -2.1 -4.3 -3 -6.4 -0.9 -2.2 -2 -4.1 -2.5 -4.1 -0.6 0 -1 -1 -1 -2.1 0 -1.2 -0.9 -3.7 -1.7 -5.6 -2.6 -5.1 -6.9 -22.5 -6.9 -28.1 l0 -4.9 84.5 -0.4 c85.7 -0.5 90.5 -0.7 95.1 -5.1 0.9 -0.9 4.1 -3.1 7.2 -4.8 7.5 -4.5 14.2 -10.6 16.6 -15.5 3.6 -7.2 1.9 -25.7 -4.3 -48.6 -2.6 -9.2 -13.7 -33.6 -16.8 -36.9 -0.9 -0.9 -1.6 -2.1 -1.6 -2.7 0 -0.6 -1.9 -3.7 -4 -6.9 -2.2 -3.1 -4.6 -6.6 -5.3 -7.5 -3.2 -4.7 -14.3 -16.1 -21 -21.4 -9.3 -7.3 -17.1 -11.3 -29.6 -15.3 -17.6 -5.8 -40.7 -4 -60.7 4.9 -2 0.9 -5.7 2.5 -8 3.5 -2.4 1.1 -6.6 3.3 -9.3 5.1 -2.7 1.7 -6.1 3.6 -7.4 4.2 -1.5 0.6 -3.3 2 -4.2 3.1 -0.9 1.1 -2.1 2 -2.6 2 -1.2 0 -5.8 3.7 -13.7 11.1 -3.2 3.1 -6.9 6.4 -8.2 7.5 -6.1 5.4 -21.4 24.7 -21.4 27 0 0.7 -0.5 1.4 -1 1.4 -0.6 0 -2.1 2.1 -3.5 4.7 -1.2 2.5 -3 5.4 -3.7 6.4 -1.4 1.7 -4.8 9.6 -10.4 23.5 -1.2 3.1 -3.6 11.1 -5.2 17.9 -2.5 10.9 -2.8 15.5 -2.8 38.3 0 22.6 0.4 27.6 2.8 38.3 1.6 6.8 3.5 14.1 4.2 16.1 3.5 10 4.9 13.6 5.8 14.2 0.5 0.4 2.6 4.2 4.7 8.7 2.1 4.5 4.9 9.2 6.3 10.6 1.4 1.4 2.8 3.7 3.2 5.2 0.5 1.5 1.5 2.7 2.1 2.7 0.6 0 1.5 1 2 2.2 1.5 4.1 12.1 15.6 21.3 22.9 10.4 8.3 23.4 14.7 33.5 16.8 3.7 0.7 7.9 1.6 9.3 1.9 5.2 1.2 26.3 -0.5 34 -2.8z m222.9 1.5 c6.2 -2.4 14.7 -7.7 16.2 -9.9 0.5 -0.9 1.5 -1.6 2.1 -1.6 1.6 0 8.7 -7.4 8.7 -9.2 0 -1.4 3.6 -11 7.4 -19.9 2.1 -5.1 3.2 -8.2 7.4 -20.5 1.4 -3.7 3.2 -8.4 4.3 -10.5 1 -2 1.9 -4.5 1.9 -5.4 0 -1.1 0.5 -2.5 1.1 -3.1 0.6 -0.7 2.2 -4.6 3.6 -8.7 1.5 -4.1 3.6 -10.1 4.9 -13.6 1.4 -3.3 3.2 -8.2 4 -10.5 0.9 -2.4 2.8 -7.3 4.5 -10.9 1.6 -3.6 3 -7.4 3 -8.7 0 -1.2 0.5 -2.7 1.1 -3.3 1.1 -1.2 4.5 -9.9 9 -23.5 1.4 -4.1 3 -7.9 3.6 -8.7 0.6 -0.6 1.1 -2 1.1 -3 0 -1.1 1.2 -4.9 2.6 -8.8 1.5 -3.7 3.1 -7.9 3.6 -9.3 0.6 -1.4 1.9 -4.5 3 -7.1 1.1 -2.5 2 -4.9 2 -5.6 0 -0.6 1.1 -3.5 2.5 -6.3 1.4 -2.7 2.5 -5.9 2.5 -6.9 0 -1.1 1.1 -4.3 2.4 -7.2 3.7 -8.4 7.5 -18.8 7.5 -20.4 0 -0.9 1 -3.3 2.4 -5.7 1.2 -2.2 2.7 -6.1 3.2 -8.4 0.5 -2.4 1.9 -6.4 3.1 -9.2 3.2 -7.5 5.1 -13 7.1 -20.4 1 -3.7 2.4 -7.3 3 -7.9 2 -2.1 1.2 -5.7 -1.2 -5.7 -2.4 0 -13.2 4.5 -15.5 6.4 -0.7 0.6 -4.3 3.2 -8 5.9 -7.2 5.3 -9.8 8.7 -12.7 17.3 -4.5 12.7 -7.5 20.5 -8.5 21.5 -0.6 0.7 -1.1 2.1 -1.1 3.1 -0.1 1.1 -1.1 4.2 -2.5 6.9 -1.4 2.7 -2.4 5.6 -2.5 6.4 0 0.9 -1.4 4.6 -3.1 8.3 -1.7 3.7 -3.1 7.4 -3.1 8.2 0 0.9 -0.9 3.2 -1.7 5.3 -2 4.3 -6.4 16.6 -8.3 22.8 -0.6 2.2 -2 5.6 -3 7.4 -1 1.9 -1.9 4.5 -1.9 5.7 0 1.2 -1.1 4.3 -2.4 6.8 -1.4 2.6 -4.5 10.8 -6.9 18.3 -2.5 7.4 -5.1 14 -5.7 14.7 -0.6 0.6 -1.1 2.2 -1.1 3.5 0 1.2 -0.9 4.1 -1.7 6.2 -2.1 4.5 -6.6 16.8 -8 22.5 -0.6 2.1 -2.2 6.2 -3.7 9.3 -1.4 3.1 -2.6 6.6 -2.6 7.7 0 1.2 -1 4.1 -2.1 6.6 -1.9 3.8 -2.6 4.3 -6.6 4.3 -4.3 0 -4.7 -0.2 -6.7 -5.8 -2.5 -7.1 -5.9 -16.6 -8 -22.6 -0.9 -2.4 -2.8 -7.7 -4.5 -11.8 -1.5 -4.1 -3.5 -9.4 -4.3 -11.8 -0.9 -2.4 -2.4 -6.2 -3.3 -8.5 -1 -2.4 -3.3 -9 -5.3 -14.8 -5.1 -15.1 -10.6 -30.3 -12.2 -33.3 -0.7 -1.4 -1.4 -3.8 -1.4 -5.4 0 -1.6 -0.5 -3.5 -1.1 -4.1 -0.6 -0.7 -2.2 -4.6 -3.7 -8.7 -4.2 -12.7 -6.3 -18.4 -7.5 -21 -1.2 -2.7 -5.7 -15.1 -7.5 -21 -0.6 -2 -2.2 -6.1 -3.6 -8.9 -1.4 -3 -2.5 -5.9 -2.5 -6.8 -0.1 -0.9 -1.1 -3.8 -2.5 -6.6 -1.4 -2.7 -2.4 -5.6 -2.5 -6.3 0 -1.2 -2.4 -6.9 -8 -19.7 -1 -2 -2 -4.7 -2.4 -5.8 -0.4 -1.4 -1.9 -2.2 -3.6 -2.2 -3.5 0 -12.2 4.1 -14.5 6.7 -0.9 1.1 -2.2 2 -3 2 -0.7 0 -2.4 1 -3.5 2.2 -1.1 1.1 -3.6 3.6 -5.6 5.3 -1.9 1.7 -4.2 4.3 -5.1 5.8 -1.6 3 -1 5.4 6.6 25.6 1.7 4.8 3.6 9.8 4 11.1 0.4 1.4 1.5 4.3 2.5 6.6 1 2.2 2.7 6.9 4.1 10.5 1.2 3.6 3.7 10.4 5.6 15.1 1.7 4.8 3.7 10.4 4.3 12.4 0.6 2.1 2.8 8.4 4.9 14.2 2.1 5.8 4.7 13 5.7 16.1 1.1 3.1 2.6 6.7 3.5 8 0.9 1.4 1.9 3.8 2.2 5.6 0.4 1.7 2.2 7.1 4.1 11.8 1.9 4.8 4.1 10.9 4.9 13.6 0.9 2.7 2.4 6.7 3.2 8.7 0.9 2.1 2.2 5.9 3.1 8.7 2.8 9.5 7.4 22 9.3 25.6 0.6 1.2 1.1 3.1 1.1 4.1 0 1.1 0.9 3.7 2.1 5.9 1.1 2.2 2.5 5.7 3 7.7 1.5 5.6 7.4 22 8.5 23.5 0.5 0.7 1.4 3.1 1.9 5.4 0.5 2.4 2 5.9 3.2 8 1.2 2.1 2.4 4.6 2.4 5.6 0 1 1 4 2.4 6.8 7.1 15.7 8.8 19.3 9.4 19.3 0.2 0 3 -1 5.8 -2.1z m166.5 -1.9 c7.1 -4 10.8 -6.4 11.8 -8 0.5 -0.9 1.5 -1.6 2.1 -1.6 1.7 0 7.2 -5.8 9.3 -9.9 1.6 -3.1 1.9 -30.4 1.9 -225.5 0 -248 0.9 -226.6 -8.8 -223.5 -2.7 1 -6.2 2.7 -7.7 4.1 -1.5 1.2 -4.1 3.1 -5.8 4 -1.7 0.9 -5.8 4.5 -9 7.9 l-5.8 6.2 0 224.4 c0 123.3 0.4 224.7 0.7 225.1 1.1 1.1 6.4 -0.4 11.4 -3.1z m203.1 0.9 c5.8 -1 12.5 -2.6 14.8 -3.6 24.9 -9.8 27.8 -10.1 34.6 -4.5 2.4 2 4.9 4.2 5.8 4.9 1.9 1.6 13.6 6.2 15.6 6.2 0.9 0 3.5 -1.5 5.6 -3.2 l4 -3.3 0 -110.2 0 -110.2 -3.2 -9.4 c-2 -5.8 -5.4 -12.4 -9.3 -17.4 -6.8 -9.2 -21.4 -24.5 -23.1 -24.5 -0.7 0 -1.5 -0.7 -1.9 -1.6 -0.5 -1.5 -11.4 -9.5 -16.5 -12.2 -1 -0.6 -2.7 -1.6 -3.8 -2.2 -7.2 -4.1 -18.6 -8.8 -28.8 -11.9 -11.5 -3.5 -12.5 -3.5 -40.8 -3.5 -28.2 -0.1 -29.3 0 -39 3.2 -9.8 3.2 -23.5 9.2 -26 11.1 -2.7 2.4 -10.6 7.2 -11.6 7.2 -0.5 0 -2 1.1 -3.2 2.5 -1.2 1.4 -2.7 2.5 -3.3 2.5 -0.7 0 -5.6 4.5 -10.9 9.8 -9.9 10 -16.1 20.3 -16.1 27 0 4.6 4.9 13.7 9.3 17.2 2 1.6 4.3 3.6 5.2 4.2 4 3.2 18.9 7.3 18.9 5.2 0 -0.7 1.1 -1.7 2.5 -2.1 1.4 -0.4 2.5 -1.4 2.5 -2 0 -0.7 1.4 -3.1 3.1 -5.3 1.7 -2.2 3.1 -4.9 3.1 -6.1 0 -4 12.1 -17.1 21.3 -23.3 21.8 -14.5 49 -18.9 82.4 -13.5 9.3 1.5 19.2 3.8 21.8 5.1 2.7 1.4 5.6 2.4 6.4 2.4 3.3 0 15.3 11.4 18.1 17.1 4.1 8.8 4.5 19.7 0.9 26.7 -2.8 5.8 -13.6 16.8 -16.3 16.8 -0.9 0 -2.8 1.1 -4.6 2.5 -1.7 1.4 -4 2.5 -5.1 2.5 -1.1 0 -3.7 0.9 -5.8 1.9 -6.2 3.2 -15.2 5.4 -41.7 10.5 -7.4 1.4 -17.8 3.7 -22.9 5.2 -5.1 1.4 -11.5 3.1 -14.2 3.7 -2.7 0.6 -6.7 1.9 -8.9 2.8 -2.1 1 -4.7 1.9 -5.7 1.9 -2.4 0 -22.6 9 -31.3 14.1 -15.2 8.5 -27.3 21.2 -34.1 35.1 -4.9 10.3 -5.2 11.4 -5.7 23.9 -0.5 13.1 0.1 17.2 4.8 29.6 6.3 16.3 35.4 44.9 56.5 55.5 1.1 0.6 4.5 2.2 7.2 3.7 2.8 1.4 6.1 2.6 7.2 2.6 1.2 0 3.6 0.7 5.4 1.7 3 1.5 12.9 3.5 30.6 6.2 6.9 1 35.7 -0.4 46.4 -2.4z m-2784.7 -65.1 c4 -1.4 8.7 -2.8 10.4 -3.2 1.7 -0.4 4.6 -1.7 6.4 -3 1.7 -1.4 4.1 -2.4 5.2 -2.4 1.1 0 2 -0.5 2 -1 0 -0.6 2.4 -2.4 5.1 -4 5.4 -3 17.4 -14.3 21.5 -20.3 1.4 -2 3.5 -5.1 4.6 -6.8 8 -11.9 14.6 -32.8 14.6 -46.5 0 -8.5 -3.6 -25.5 -6.7 -31.8 -1.1 -2.1 -2 -4.5 -2 -5.1 0 -0.7 -1.4 -3.1 -3.1 -5.3 -1.7 -2.2 -3.1 -4.3 -3.1 -4.8 0 -1.7 -10 -14 -15.1 -18.6 -9.9 -8.7 -12.2 -10.5 -14 -10.5 -0.9 0 -1.9 -0.5 -2.1 -1 -0.9 -2.4 -14.2 -7.8 -26.1 -10.9 -18.1 -4.7 -33.1 -3.3 -51.2 4.6 -3 1.4 -5.6 2.4 -5.9 2.4 -3.6 0 -29.1 20.7 -29.1 23.5 0 0.6 -0.9 1.6 -2 2.2 -1 0.6 -2.6 2.2 -3.3 3.7 -0.9 1.4 -3.2 5.6 -5.4 9.4 -2.2 3.7 -5.4 10.9 -7.3 15.8 -2.8 8 -3.2 10.9 -3.3 25.7 -0.1 14.8 0.2 17.7 3.1 26 2.8 8 8 18.9 11.1 22.9 6.9 9 14.2 17.2 17.9 20 2.6 1.9 4.9 3.7 5.3 4.1 2.8 2.8 17.3 10.3 26.7 13.6 8.5 3.1 11.6 3.5 24.1 3.6 11.5 0.1 15.8 -0.4 21.6 -2.5z m947.9 -37.5 c15.6 -3.2 23.4 -5.7 32.8 -10.1 3.5 -1.6 6.8 -3 7.4 -3 0.7 0 2.6 -1.1 4.3 -2.5 1.7 -1.4 3.7 -2.5 4.6 -2.5 1.7 0 13.1 -7.4 13.7 -8.9 0.2 -0.5 1 -1 1.7 -1 2.5 0 21 -16.6 28.9 -25.9 4.3 -5.2 8.7 -10.3 9.6 -11.3 0.9 -1 2 -2.7 2.5 -3.7 0.4 -1 2.4 -4.3 4.3 -7.4 5.3 -8.3 16.2 -30.9 16.2 -33.8 0 -1 1 -4.7 2.2 -8.4 3.5 -10 6.9 -37 6.1 -46.8 -1.4 -14 -3.5 -26.5 -5.9 -34.3 -1.2 -4.1 -2.4 -8.2 -2.4 -9 0 -2.1 -13.6 -30.3 -15 -30.8 -0.6 -0.2 -1.1 -1.5 -1.1 -2.7 0 -1.2 -0.6 -2.7 -1.2 -3.1 -0.7 -0.5 -2.7 -3 -4.3 -5.7 -4.9 -7.7 -26.6 -30.8 -28.9 -30.8 -0.7 0 -1.9 -1.1 -2.6 -2.5 -0.7 -1.4 -2.1 -2.5 -3.1 -2.5 -1 0 -1.9 -0.5 -1.9 -1.1 0 -0.6 -2.1 -2.5 -4.6 -4 -2.6 -1.6 -4.9 -3.2 -5.3 -3.7 -0.9 -1.1 -21.5 -11.4 -29.1 -14.5 -16.3 -6.6 -40.8 -11.5 -57.5 -11.4 -9.5 0 -31.5 3.3 -41.1 6.3 -10.4 3.1 -14.7 4.8 -30.1 12.2 -11.5 5.6 -12.7 6.3 -24.4 15.5 -3.8 3.1 -7.3 5.6 -7.5 5.6 -1.1 0 -16.9 16.3 -16.9 17.4 0 0.6 -1.4 2 -3.1 3.1 -1.7 1.1 -3.1 2.8 -3.1 3.7 0 1 -0.4 1.7 -1 1.7 -0.5 0 -2.2 2.2 -4 4.9 -1.7 2.7 -3.5 4.9 -4 4.9 -0.6 0 -1 1 -1 2.1 0 1.1 -0.7 3 -1.7 4 -1.7 2.1 -6.1 10.5 -11 21.2 -6.7 14.7 -12.2 40.9 -12.4 58.5 0 11.6 2.8 31.7 6.2 41.7 1 3.1 2.2 7.7 3 10.1 0.6 2.6 2.2 6.6 3.6 9 1.4 2.5 2.5 5.1 2.5 5.9 0 0.9 1.1 2.8 2.5 4.6 1.4 1.7 2.5 3.7 2.5 4.6 0.1 6.7 29.9 42.4 42.4 50.7 2.5 1.7 4.6 3.7 4.6 4.2 0 0.6 0.7 1.1 1.7 1.1 0.9 0 2.4 0.9 3.2 1.9 0.9 1.1 3.5 2.8 5.7 3.8 2.4 1.1 4.2 2.5 4.2 3.1 0 0.6 0.6 1.1 1.5 1.1 0.7 0 5.9 2.2 11.4 4.9 11.8 5.7 22.6 9.8 30.4 11.3 3.1 0.5 9.5 1.9 14.2 2.8 13.6 2.7 33.5 2.4 50.1 -1z m-484.7 -136.3 c16 -6.4 27.3 -15.7 37.7 -30.8 6.2 -8.9 11.6 -26.3 11.6 -37.1 0 -6.9 -3 -21.3 -5.4 -26 -1.1 -2.1 -2 -4.3 -2 -5.2 0 -0.7 -0.7 -2.2 -1.7 -3.2 -1 -1 -2.8 -3.3 -4.1 -5.4 -10.1 -16.5 -32.3 -30.4 -51.6 -32.5 -4.8 -0.6 -12.4 -0.5 -16.8 0 -8.8 1.1 -21.8 5.3 -24.9 8.2 -1 1 -2.5 1.7 -3.2 1.7 -0.6 0 -2.5 1.4 -4.1 3.1 -1.6 1.7 -3.5 3.1 -4.1 3.1 -2.5 0 -18.2 18.9 -18.2 21.8 0 0.5 -0.7 1.9 -1.7 2.8 -1.9 2.2 -7.4 19.4 -8.7 26.8 -0.9 4.9 1.1 16.6 4.8 27.1 1.9 5.7 8 17.1 9.5 17.7 0.5 0.2 1 1 1 1.7 0 2.1 15.6 16.8 20.8 19.5 2.5 1.4 5.4 3 6.4 3.6 13.7 8.2 38.7 9.5 54.5 3.1z m-440.8 -73.3 c11.8 -2.5 27.1 -9.3 32.7 -14.5 1.7 -1.6 3.5 -3 4 -3 1.1 0 16.9 -16.5 16.9 -17.7 0 -0.6 1.4 -2.8 3.1 -5.1 1.7 -2.2 3.1 -4.7 3.1 -5.6 0 -0.7 0.9 -2.7 1.9 -4.3 2.6 -3.8 8 -25 8 -31 0 -11.3 -8.8 -38 -14.3 -43.7 -1 -0.9 -1.7 -2.2 -1.7 -3 0 -1.9 -13.5 -15.6 -20.7 -20.9 -11.6 -8.7 -29.6 -15.6 -43.9 -16.9 -8.2 -0.6 -28.3 3.6 -35.4 7.4 -2.2 1.2 -4.6 2.2 -5.3 2.2 -1.1 0 -2.6 1 -6.7 4.7 -0.9 0.7 -2.2 1.5 -2.7 1.5 -1.7 0 -18.9 16.7 -18.9 18.3 0 0.9 -0.5 1.5 -1.2 1.5 -0.6 0 -2.4 2.1 -3.7 4.7 -1.4 2.5 -3 5.4 -3.6 6.4 -4.7 8 -10 28 -10 37.4 0 3 0.9 8.7 1.9 12.5 1 4 1.9 8 1.9 9 0 1.9 4.1 12 6.2 15.3 0.6 1 2.4 4 3.7 6.4 1.4 2.6 4.5 6.6 6.8 8.9 2.4 2.5 4.3 4.9 4.3 5.7 0 0.6 0.6 1.2 1.2 1.2 0.7 0 3.5 2 5.9 4.5 2.5 2.5 6.6 5.6 8.9 6.8 2.4 1.4 5.2 2.8 6.2 3.5 9 5.1 25.5 9.6 35.4 9.9 2.8 0.1 10 -0.9 16.2 -2.2z m765.7 -89.3 c2.1 -2 4 -4.2 4 -4.8 0 -2.7 -6.6 -8.7 -9.6 -8.7 -3.8 0 -8.9 4.5 -8.9 7.9 0 3 5.8 9.4 8.5 9.4 1.1 0 3.8 -1.7 6.1 -3.8z m-40.2 -33.5 c1.1 -0.6 2.1 -1.6 2.1 -2.2 0 -0.7 0.7 -1.2 1.6 -1.2 2 0 7.1 -9.6 7.1 -13.5 0 -2.4 -3.7 -9 -7.7 -13.7 -0.9 -1.1 -4 -2.7 -6.8 -3.6 -6.8 -2.2 -11.6 -0.5 -18.6 7.1 -6.7 7.1 -7.2 12.2 -1.7 19.5 6.8 9.5 15.3 12.2 24 7.7z m-83.2 -21.5 c3.7 -1 8.5 -2.4 10.5 -3 10.1 -2.7 22.8 -10.1 31.2 -18.2 1.6 -1.6 3.5 -2.8 4.2 -2.8 0.6 0 1.5 -0.9 1.9 -1.9 0.4 -1 2.6 -3.7 4.9 -6.3 2.4 -2.5 5.2 -6.2 6.3 -8.3 1.1 -2.2 2.4 -4.2 2.8 -4.6 1.4 -1 7.4 -14.5 7.4 -16.5 0 -1 0.9 -3.8 1.9 -6.2 3.5 -8.4 4.5 -20.9 2.5 -30.8 -2.5 -12.2 -4.6 -19.4 -7.2 -24.1 -1.1 -2.2 -2.1 -4.6 -2.1 -5.2 0 -1.1 -6.2 -11 -9.3 -14.6 -5.1 -6.2 -14.2 -15.2 -15.3 -15.2 -0.7 0 -1.4 -0.5 -1.4 -1.1 0 -0.6 -2.1 -2.5 -4.6 -4 -2.6 -1.6 -4.8 -3.3 -5.1 -3.8 -0.2 -0.5 -1.4 -1 -2.6 -1 -1.1 0 -2.7 -0.6 -3.3 -1.2 -1.5 -1.5 -12.2 -5.7 -20.9 -8.2 -10.4 -2.8 -28.8 -2.2 -40 1.4 -8.3 2.8 -18.8 7.4 -26.8 12.1 -5.8 3.3 -23.1 20.8 -26.1 26.2 -0.7 1.4 -2.8 5.3 -4.7 8.7 -1.9 3.5 -4.8 10.4 -6.6 15.5 -2.7 7.9 -3.2 11.5 -3.2 24.7 0 16.2 1.6 23.5 8.2 37.1 2.8 5.8 9 15.6 11.4 18.1 0.7 0.9 2.7 3.1 4.5 4.9 9.9 11.6 27.5 22.1 45 27.1 4.1 1.1 8 2.2 8.7 2.5 3.6 1.2 21.9 0.4 27.8 -1.4z m-531.4 -69 c8.8 -3 20.8 -9 21.5 -10.9 0.2 -0.5 1.2 -1 2.1 -1 2.4 0 24.1 -21.8 24.1 -24.1 0 -1 0.5 -1.9 1 -1.9 1.2 0 7.4 -12.4 11.3 -22.1 3.2 -8.3 4.6 -27 2.8 -39.2 -1.2 -8.5 -2.6 -12.7 -7.8 -23.4 -1.2 -2.7 -2.4 -5.3 -2.4 -5.8 0 -3 -21.6 -28.2 -24.1 -28.2 -0.4 0 -1.9 -1 -3.1 -2.2 -4.2 -3.8 -21.3 -11.6 -32.2 -14.7 -13.6 -3.7 -24.7 -3.7 -38.3 0 -11.1 3.1 -26 9.4 -26 11 0 0.5 -0.7 1 -1.7 1 -4.3 0 -29.2 25.1 -29.2 29.6 0 0.7 -0.5 1.4 -1 1.4 -1.7 0 -8.8 17.6 -11.4 28.4 -3 12.7 -3.1 20.7 -0.5 30.3 1.1 4.1 2.5 9.4 3.1 11.8 1 4.2 3.8 11.1 6.2 14.8 0.6 1 2.1 3.8 3.5 6.2 1.2 2.5 4.3 6.6 6.8 9.3 2.4 2.7 4.8 5.6 5.4 6.2 2 2.2 12 10.4 16.3 13.2 9.4 6.2 23.6 11.8 33.9 13.5 10.8 1.7 29.7 0.2 39.6 -3.1z m430.7 -104.1 c8.8 -5.8 10.8 -14.7 4.8 -21.8 -6.9 -8.3 -15.8 -8.7 -22.4 -1.1 -6.6 7.4 -4.8 16.8 4.2 22.5 5.8 3.7 8 3.7 13.4 0.4z m-58.6 -47.1 c10.6 -4.2 17.7 -11.9 21.4 -23.3 1.9 -5.9 1.9 -6.7 -0.4 -13.9 -1.4 -4.1 -3.1 -8.5 -4.1 -9.6 -7.5 -9.2 -18.1 -15.5 -26.2 -15.5 -6.1 0 -16.6 4.9 -21.4 10.1 -8.4 9 -9.8 12 -9.8 22 0 7.8 0.5 10 3 13.6 4.2 6.1 12.7 14.8 14.5 14.8 0.7 0 3.1 0.9 4.9 1.9 4.7 2.5 11.6 2.4 18.1 -0.2z m-130.7 -38.7 c5.4 -0.6 12.4 -2 15.3 -3 3 -1.1 6.2 -2 7.1 -2 1.9 0 28 -12.1 28.9 -13.5 0.4 -0.4 4 -3 7.9 -5.6 8.8 -5.7 8.9 -5.7 17.8 -14.3 8 -7.8 14.3 -15.1 17.3 -20 1.1 -2 2.5 -3.5 3 -3.5 0.5 0 1 -0.7 1 -1.7 0 -1 0.7 -2.6 1.6 -3.5 2.7 -2.8 13.9 -26.7 14.8 -31.9 0.4 -1.7 1.6 -6.4 2.8 -10.5 1.7 -5.9 2.2 -11.9 2.2 -29.7 -0.1 -19.5 -0.4 -23.3 -2.7 -29.9 -1.5 -4.2 -2.7 -8.4 -2.7 -9.3 0 -2.4 -5.1 -14.3 -8.3 -19.9 -1.6 -2.6 -2.8 -5.2 -2.8 -5.8 0 -1.4 -5.4 -9.8 -8 -12.5 -1 -1.1 -1.9 -2.4 -1.9 -2.7 0 -3.7 -31.8 -34.3 -35.5 -34.3 -0.9 0 -1.6 -0.5 -1.6 -1.1 0 -0.6 -2.1 -2.1 -4.6 -3.2 -2.6 -1.2 -4.9 -2.6 -5.3 -3.1 -0.6 -0.9 -8 -4.1 -21.9 -9.8 -9.8 -4 -30.6 -7.8 -43 -7.9 -12.9 -0.1 -31.4 3.1 -42.1 7.3 -4.1 1.6 -7.8 3 -8.3 3 -3.7 0 -34.4 17.8 -34.4 19.9 0 0.6 -0.9 1.1 -1.9 1.1 -1 0 -2.4 1.1 -3.1 2.5 -0.7 1.4 -1.7 2.5 -2.4 2.5 -1.4 0 -13.7 12 -13.7 13.2 0 0.6 -1.1 1.7 -2.5 2.6 -1.4 0.9 -2.5 2.4 -2.5 3.3 0 1 -0.4 1.9 -1 1.9 -0.5 0 -2.2 2.2 -4 4.9 -1.7 2.7 -3.5 4.9 -4 4.9 -0.6 0 -1 1.1 -1 2.4 0 1.4 -0.5 2.7 -1.2 3.2 -1.5 1 -9 16.8 -12.1 26 -4.8 14.1 -8 34.8 -7.3 46.4 1.7 23.4 9.6 48.6 20.7 65.6 2 3.1 4.1 6.4 4.5 7.4 2 4.2 17.9 22 24.5 27.2 3.8 3.1 6.9 5.9 6.9 6.4 0 0.6 0.7 1 1.6 1 1 0 2.7 1.1 4 2.5 1.2 1.4 2.7 2.5 3.5 2.5 0.6 0 2.8 1.2 4.8 2.7 12.4 8.8 35.4 16.7 55.4 18.9 13.1 1.6 16.1 1.5 34 -0.6z m560.2 -124.3 c15.3 -2.5 25.7 -6.7 38.2 -15.3 12 -8.2 24.4 -22.5 30.1 -34.8 5.7 -12.2 6.7 -15.2 8.5 -26.6 1.6 -10.3 1.6 -13.1 0.1 -23.4 -1.7 -11.3 -3 -15.2 -8.3 -26.1 -1.2 -2.7 -2.4 -5.4 -2.4 -5.9 0 -0.9 -1.1 -2.5 -4.6 -6.4 -0.9 -0.9 -1.6 -2.2 -1.6 -3 0 -0.7 -1.1 -1.9 -2.5 -2.6 -1.4 -0.7 -2.5 -2 -2.5 -2.7 0 -1.7 -12.5 -13.4 -14.3 -13.4 -0.9 0 -1.7 -0.7 -2.1 -1.6 -1 -2.6 -23.9 -13.4 -32.7 -15.3 -16.5 -3.6 -37.6 -1.6 -50 4.6 -2.6 1.4 -5.3 2.5 -5.9 2.5 -1.1 0 -4.2 1.9 -12.9 7.8 -8.7 5.8 -16.9 14.1 -22.8 22.8 -8.8 12.9 -10.1 15.8 -14.1 30.7 -3.7 14.1 -4 21 -1.4 34.1 1.2 6.6 3.3 13.7 4.5 16 1.1 2.2 2 4.7 2 5.3 0 1.2 1 3 9.2 15.3 4.2 6.4 18.9 21.4 21 21.4 0.5 0 2 1.1 3.5 2.5 6.1 5.6 21.8 11.9 35.6 14.2 12.4 2.1 12.6 2.1 25.2 0z m-294.2 -10 c11.9 -2.2 22.9 -7.4 35.9 -16.7 6.2 -4.5 19.2 -17.9 22 -22.9 11.3 -19.7 14.5 -30.2 14.5 -48.4 0 -15 -2.6 -25.7 -9.4 -39.3 -6.8 -13.4 -12.4 -20.3 -24.6 -30.2 -19.7 -16 -43.7 -23.3 -66 -19.9 -14 2 -33.5 9.8 -39.3 15.5 -1 1 -2.2 1.9 -2.6 1.9 -1.2 0 -17.6 16 -17.6 17.1 0 0.5 -1.1 1.9 -2.5 3.1 -1.4 1.1 -2.5 3 -2.5 4 0 1 -0.5 1.9 -1 1.9 -1.4 0 -7.8 14.3 -11.5 25.4 -4.3 12.6 -4.1 29.7 0.5 43.3 3.2 9.3 7.8 19.5 11.1 24.6 8.3 13 24 27.1 36.7 33 1.7 0.7 5.1 2.5 7.4 3.7 4.1 2 17.1 5.2 26.6 6.4 4.6 0.6 11 -0.1 22.3 -2.4z"/>
  <path d="M2280.8 1406.1 c0 -7.3 5.1 -17.2 10.9 -21.2 4.3 -3.1 5.7 -3.3 17.1 -3.3 11.8 0 12.5 0.1 16.5 3.6 5.3 4.6 8.8 12.5 8.8 20 l0 6.1 -26.6 0 -26.6 0 0 -5.2z"/>
  <path d="M2583.2 1448.7 c-11.5 -5.9 -16.3 -17.8 -15.1 -36.6 0.9 -15.2 5.4 -24.5 14.1 -29.1 1.5 -0.9 7.9 -1.5 14.2 -1.5 10.4 0 12.1 0.4 15.8 3.1 2.2 1.6 5.6 5.4 7.3 8.3 3.1 5.1 3.2 6.2 3.2 23.3 l0 17.9 -4 5.7 c-5.9 8.7 -10.9 11 -22.4 11 -6.2 -0.1 -10.8 -0.7 -13.2 -2.1z"/>
  <path d="M2704.2 1448.4 c-2.8 -1.4 -5.4 -3.6 -5.9 -4.9 -0.4 -1.4 -1.2 -2.5 -1.9 -2.5 -2.2 0 -4.9 -13.6 -4.9 -24.5 0 -16.5 1.9 -22.9 8.4 -29.4 l5.4 -5.4 13.2 0 13.2 0 4.8 4.7 c6.9 6.7 9.3 14.1 9.3 29.3 0 12.4 -2.2 22.5 -5.8 26.3 -0.9 0.9 -2 2.4 -2.5 3.2 -3.6 5.8 -23.6 7.7 -33.4 3.2z"/>
  <path d="M2469.9 1311.9 c-9.6 -4.3 -14.7 -16 -14.7 -33.3 0 -17.9 5.9 -30.3 16.1 -33.1 4.9 -1.4 16.3 -1.6 22.3 -0.5 2.2 0.5 6.1 3 8.7 5.6 6.6 6.6 9.3 16.9 8.3 31.7 -1 17.4 -5.8 26.6 -15.6 29.9 -5.3 1.7 -20.8 1.6 -25 -0.2z"/>
  <path d="M2740.9 1311.6 c-9.9 -4.3 -13.6 -13.1 -13.6 -32.7 0 -15.8 2.5 -24.1 8.7 -29.7 4.5 -4 8.3 -4.9 19.4 -4.9 18.9 0 26.3 9.8 26.3 34.9 0 18.4 -4.5 28.7 -13.9 32.5 -6.1 2.4 -21.2 2.4 -27 -0.1z"/>
  <path d="M2916.5 1311.9 c-4.7 -2.2 -8.2 -5.8 -11.4 -12 -2.5 -4.9 -2.8 -7.3 -2.8 -21 0 -13.7 0.4 -16.1 2.8 -21 3.7 -7.2 9.3 -12.1 14.7 -13.1 2.4 -0.5 8.7 -0.5 14.1 -0.2 8.2 0.5 10.3 1.1 12.9 3.5 8.4 7.9 11.4 20.2 9.8 40.1 -0.7 7.5 -1.6 10.5 -4.7 15.2 -5.2 8 -10 10.1 -22.4 10.1 -5.4 0 -11.3 -0.7 -13 -1.5z"/>
  <path d="M2217.9 971.9 c0.7 -15.6 7.2 -42.1 13.5 -56.3 1.2 -3 2.4 -5.8 2.4 -6.4 0 -2.5 7.3 -12.7 14 -19.5 6.3 -6.7 7.5 -7.5 14.1 -10.6 5.2 -2.4 8.2 -2.7 22.6 -2.7 17.9 0 24.9 1.5 37.7 8 12.4 6.3 32.7 24.2 34.6 30.7 0.4 1.5 1.2 2.7 1.7 2.7 0.5 0 2 2.2 3.2 4.9 1.2 2.7 2.7 4.9 3.3 4.9 0.5 0 1 1 1 2.2 0 1.2 0.5 2.7 1.1 3.5 5.4 5.4 15 33 15 43.4 l0 6.6 -82.4 0 -82.4 0 0.5 -11.4z"/>
  <path d="M2828.7 1111.9 c-3.7 -0.5 -8.9 -1.9 -11.4 -3 -2.6 -1.1 -5.6 -2 -6.8 -2 -1.2 0 -3.6 -1.1 -5.3 -2.5 -1.7 -1.4 -3.8 -2.5 -4.7 -2.5 -2.8 0 -12 -9.6 -15 -15.6 -2.6 -5.1 -2.8 -7.1 -2.4 -18.4 0.2 -6.9 1 -13.5 1.7 -14.3 0.7 -1 2.1 -3.8 2.8 -6.3 0.9 -2.6 2 -4.7 2.6 -4.7 0.6 0 1.4 -1 1.7 -2.1 1.1 -3.2 9.6 -11.8 15 -14.8 10.4 -6.2 29.7 -14 34.3 -14 0.9 0 6.3 -1.4 12.1 -3 5.8 -1.7 15.2 -4.3 21 -5.8 22.4 -5.7 29.2 -7.5 33.4 -8.7 18.7 -5.3 26.6 -7.3 29.8 -7.3 l3.6 0 0 33.1 c0 43.3 -1.2 51 -8.9 60.2 -13.2 15.6 -23.9 22.6 -44.3 29.2 -8.2 2.5 -12 3 -30.9 3.1 -11.9 0.1 -24.7 -0.1 -28.4 -0.7z"/>
  <path d="M453.3 402.4 c-20.3 -4.5 -32.8 -9.4 -45.6 -17.9 -14.7 -9.6 -28 -25 -36.1 -41.6 -5.9 -12.1 -6.4 -13.7 -9.9 -32.4 -3.3 -17.7 -0.2 -48 6.2 -60.4 1.1 -2.1 2 -4.5 2 -5.2 0 -1.1 2.4 -5.3 9.3 -17.1 6.3 -10.6 28 -29.6 40.2 -35 1.7 -0.7 5.3 -2.5 8.2 -3.7 2.8 -1.4 5.8 -2.4 6.7 -2.4 0.7 0 5.3 -1.1 10 -2.6 7.7 -2.4 10.8 -2.6 29.9 -2.1 15.7 0.5 23 1.1 28.1 2.7 7.5 2.5 17.8 6.4 21.6 8.5 1.4 0.7 3.6 1.9 4.9 2.6 4.3 2.4 17.2 12.1 21.2 16.1 2 2.1 5.9 6.7 8.7 10 2.6 3.5 5.2 6.4 5.8 6.6 0.5 0.2 0.9 1.5 0.9 2.8 0 1.2 0.5 2.4 1 2.4 1.5 0 7.2 13 11.5 25.9 3.7 11.8 3.7 11.9 3.3 34.6 -0.5 21 -0.7 23.9 -3.8 32.5 -4.8 14 -10.1 24.5 -16.8 33.1 -4.8 6.2 -21 22.3 -22.5 22.3 -0.5 0 -1.7 0.7 -2.6 1.6 -4.6 4.7 -23.6 13 -37.4 16.3 -10.1 2.5 -15.3 3.1 -27.3 3 -8.2 -0.1 -16 -0.4 -17.3 -0.7z m36.4 -15.7 c16.2 -4 40.7 -16.1 42.7 -21.2 0.4 -1 1.2 -1.9 2 -1.9 0.7 0 2.8 -1.7 4.7 -3.8 1.9 -2.1 4.3 -4.7 5.6 -5.8 1.1 -1.1 2.1 -2.5 2.1 -3 0 -0.5 1.2 -2.2 2.8 -3.8 3.5 -3.8 12.2 -21.5 15.2 -30.6 1.4 -4.3 2.4 -12.2 2.7 -21.9 0.4 -13 0.1 -16.5 -2.1 -24.1 -3.6 -11.9 -8.2 -22.3 -13 -29.1 -2.1 -3.1 -4.3 -6.4 -5.1 -7.4 -2.6 -4.1 -16.5 -17.2 -21.4 -20.4 -2.8 -2 -7.3 -4.8 -9.9 -6.6 -2.6 -1.7 -5.3 -3.1 -5.9 -3.1 -0.7 0 -3.5 -1 -6.2 -2.2 -7.7 -3.7 -23.9 -7.1 -33.3 -6.9 -13.4 0.1 -33.4 5.8 -44.2 12.5 -2.6 1.6 -4.9 2.8 -5.3 2.8 -1.5 0 -15.5 11.4 -19.7 16.1 -14.8 16.5 -22.5 32.3 -26.1 54.3 -2 11.8 -2 13.2 0 24.6 1.1 6.6 2.8 13.6 3.8 15.6 1 2 1.7 4.2 1.7 4.9 0 2.5 7.5 15.7 13 22.9 5.8 7.7 19.5 21.2 21.4 21.2 0.6 0 1.9 0.9 2.7 1.9 0.9 1 3 2.6 4.8 3.5 1.7 0.9 4.3 2.2 5.7 3 6.8 3.7 21.5 8.5 32.2 10.8 6.7 1.4 17.7 0.5 28.9 -2.2z"/>
  <path d="M1548.2 1285.6 c-6.2 -1.9 -5.8 14.1 -5.8 -302.4 0 -220.8 0.4 -295.9 1.5 -299.7 2.1 -7.7 13.7 -21.8 17.8 -21.8 0.7 0 2.1 -0.7 2.8 -1.7 1.7 -2 16.8 -9.4 19.3 -9.4 0.7 0 3.3 -0.9 5.6 -2 7.8 -4 23.6 -4.5 101.4 -3.7 61 0.6 77.8 1.1 84.7 2.6 4.8 1.1 10.6 2.2 13 2.6 8.9 1.6 29.3 8.8 38.3 13.6 1.7 0.9 5.2 2.6 7.8 3.7 2.5 1.1 4.6 2.5 4.6 3.1 0 0.6 1.1 1.1 2.5 1.1 1.4 0 2.5 0.5 2.5 1.2 0 0.6 2.5 2.6 5.6 4.5 3.1 1.7 5.6 3.7 5.6 4.3 0 0.6 0.6 1.1 1.5 1.1 0.7 0 2.2 0.9 3.3 1.9 20.4 19.4 27 26.6 34.8 38.3 2.4 3.5 4.5 6.4 4.8 6.8 1.4 1.1 7.1 10.5 9 14.8 8 17.3 10.8 31.7 10.9 56.5 0 22.9 -1.2 33.5 -5.8 48.6 -5.2 16.8 -15.1 35.5 -27 50.5 -4.7 6.1 -28.8 29.1 -35.3 33.6 -4.2 3.1 -9.9 7.4 -12.6 9.6 -2.7 2.1 -5.4 4 -5.9 4 -0.6 0 -1.9 0.7 -2.7 1.6 -0.9 0.9 -3 2.2 -4.7 3.1 -1.7 0.9 -5.3 3 -8 4.6 -10.4 6.2 -34.1 18.3 -44.5 22.6 -7.2 3 -18.6 6.6 -30.9 9.5 -28.1 6.9 -88.1 7.5 -114 1.2 l-6.6 -1.6 -0.2 131.4 -0.4 131.4 -4.6 5.4 c-2.5 3.1 -6.8 7.3 -9.6 9.3 -2.8 2.1 -5.8 4.3 -6.6 4.9 -4.1 3.6 -14.7 9.2 -21.9 11.5 -7.8 2.6 -25.6 4.5 -30.1 3.2z m210.6 -351.1 c3.7 -1 8.3 -1.9 10 -1.9 1.7 0 5.4 -1.1 8.3 -2.5 2.7 -1.4 5.7 -2.5 6.3 -2.5 1.9 0 14.8 -7.1 19.4 -10.5 8.8 -6.7 24 -24.4 24 -28 0 -0.7 1.1 -2.7 2.5 -4.5 1.4 -1.7 2.5 -3.8 2.5 -4.7 0 -0.9 1 -3.7 2.4 -6.4 6.2 -12.7 9.4 -39.7 6.4 -54.2 -2.1 -10 -4.2 -17.4 -6.4 -22.3 -1.2 -2.7 -3 -6.8 -3.8 -8.9 -0.9 -2.2 -2 -4.1 -2.5 -4.1 -0.6 0 -1 -0.9 -1 -1.9 0 -2 -8.2 -13.4 -10 -14 -0.6 -0.2 -1.1 -1.2 -1.1 -2.1 0 -1 -0.7 -2.2 -1.7 -2.7 -1 -0.5 -3.5 -3.1 -5.4 -5.7 -4.8 -6.1 -19.7 -17.9 -31 -25 -1.1 -0.6 -3.7 -2.4 -5.7 -3.8 -6.7 -4.6 -35 -17.8 -38.2 -17.8 -1 0 -3.1 -0.5 -4.7 -1.1 -7.2 -2.7 -18.9 -5.1 -33.3 -6.3 -22.4 -2.1 -36.2 -0.2 -68.5 9 l-4.9 1.5 -0.4 91.8 -0.2 91.7 7.7 6.1 c8.9 7.1 14.3 10.5 21.5 13.9 2.8 1.4 5.6 3 5.9 3.7 0.5 0.7 2 1.4 3.3 1.4 1.2 0 4.5 1.1 6.9 2.5 2.6 1.4 5.9 2.5 7.4 2.5 1.5 0 3 0.5 3.5 1.1 0.4 0.6 3.6 1.7 7.2 2.5 13.9 2.6 27.7 5.1 31.8 5.6 8.2 1 35.3 -0.5 42.1 -2.4z"/>
  <path d="M3102.9 1118.6 c-10.9 -1.7 -19.2 -4.6 -25.9 -8.8 -2.6 -1.6 -5.2 -2.8 -5.9 -2.8 -0.6 0 -1.2 -0.5 -1.2 -1 0 -0.6 -2.4 -2.4 -5.1 -4 -2.8 -1.5 -8.4 -6.1 -12.4 -10 l-7.3 -7.1 0 -97 c0.1 -110 -1.1 -99.3 11.3 -105.4 10.8 -5.2 18.9 -6.9 33.6 -6.9 12.9 0 34.5 3.5 39.2 6.3 1 0.6 4.2 2.2 7.1 3.7 2.8 1.4 5.8 3.3 6.7 4.3 0.7 1 2.1 1.7 3 1.7 0.7 0 2.5 1.1 3.7 2.5 1.2 1.4 3 2.5 3.8 2.5 0.9 0 1.7 0.5 2 1 0.2 0.6 3.7 4.1 7.8 7.7 8 7.3 17.9 18.8 17.9 20.9 0 0.7 0.5 1.4 1.1 1.4 1.5 0 13.9 25.5 15.1 30.9 0.5 2.4 1.9 7.7 3.1 11.8 1.7 6.1 2.2 12.6 2.2 37.1 0.1 28.7 0 30.2 -3.3 42.7 -1.9 7.2 -4.6 15.3 -5.8 18.2 -1.4 3 -2.5 5.8 -2.5 6.6 0 2.7 -10.8 21 -13.2 22.6 -0.9 0.5 -1.6 1.5 -1.6 2.1 0 1.4 -5.9 7.4 -7.3 7.4 -0.5 0 -2 1.1 -3.2 2.5 -8.5 9.4 -37.1 13.6 -62.8 9.2z"/>
 </g>
 <g fill="#57a695">
  <path d="M1035.3 1474.1 c0 -225.1 0.1 -409.2 0.4 -409.3 0.1 0 8.3 -0.9 18.2 -1.7 9.9 -1 20.4 -2.6 23.5 -3.7 3.1 -1.2 7.5 -2.6 9.9 -3.1 10.1 -2.4 40.7 -16.2 43.3 -19.5 0.4 -0.5 1.5 -1.4 2.6 -2.1 8.4 -5.2 18.3 -13 26.1 -20.7 8.7 -8.5 21.8 -24.1 23.6 -28.2 0.5 -1 2.6 -4.3 4.6 -7.4 4.6 -7.1 9.6 -16.7 11.8 -22.3 7.4 -19.7 8.8 -24.4 13 -45.8 4.2 -21.4 1.7 -51.6 -6.3 -76.1 -1.2 -4.1 -2.4 -8.2 -2.4 -8.9 0 -0.9 -3.1 -7.8 -6.8 -15.5 -7.3 -15 -7.9 -16 -13.6 -24.4 -2.1 -3 -4.3 -6.6 -5.2 -7.9 -0.7 -1.4 -2.4 -3 -3.3 -3.6 -1.1 -0.6 -2 -1.7 -2 -2.4 0 -1.1 -5.2 -6.3 -26.1 -26.5 -1.1 -1 -2.6 -1.9 -3.3 -1.9 -0.7 0 -1.9 -0.7 -2.4 -1.6 -1.1 -1.6 -10.9 -8.3 -12.2 -8.3 -0.5 0 -1.9 -0.7 -2.8 -1.7 -2.1 -1.7 -13.1 -7.4 -22.4 -11.5 -7.7 -3.3 -17.7 -6.6 -27.2 -8.7 -4.5 -1 -9.2 -2 -10.5 -2.4 -1.4 -0.4 -8.8 -1 -16.3 -1.4 l-14 -0.7 0 -192.1 0 -192.2 6.2 -0.1 c3.5 -0.1 6.6 -0.2 7.2 -0.4 0.5 -0.1 4.2 -0.7 8.2 -1.2 4 -0.5 8.8 -1.5 10.5 -2.2 1.7 -0.7 4.3 -1.7 5.7 -2.2 7.1 -2.6 23.1 -11.1 26.3 -14 1.2 -1.2 2.6 -2.1 3.1 -2.1 0.6 0 9.2 -8.7 17.3 -17.8 2 -2.1 4.6 -5.8 5.9 -8.2 1.4 -2.4 2.8 -5.2 3.5 -6.2 3.6 -6.3 5.3 -10.6 8.3 -19.9 3.2 -9.6 3.5 -11.9 3.3 -30.8 0 -16.2 -0.5 -21.5 -2.1 -26 -1.2 -3.1 -2.6 -7.2 -3.1 -9.3 -1.4 -4.7 -7.5 -17.2 -9 -17.7 -0.5 -0.2 -1 -1 -1 -1.6 0 -3.7 -15.6 -20.9 -25.4 -28.1 -3.3 -2.5 -6.4 -4.9 -6.8 -5.4 -0.4 -0.5 -5.4 -3.1 -11.1 -5.7 -11.4 -5.3 -31 -10.1 -40.8 -10.1 l-6.2 0 0 -57 0 -57.1 19.5 0.7 c10.6 0.5 26.7 1.1 35.5 1.5 20.4 0.9 59.7 4.9 79.8 8.3 8.5 1.5 17.4 2.8 19.8 3.1 9.9 1 48.9 9 72.4 15 9.5 2.4 19.3 4.7 21.6 5.2 2.4 0.5 8.3 2.1 13 3.7 4.8 1.5 10.4 3.2 12.4 4 3.3 1.1 7.9 2.5 25.4 7.8 3.1 1 10 3.3 15.5 5.4 5.4 2 11.9 4.3 14.2 5.2 2.4 0.7 6.4 2.5 9 3.7 2.7 1.4 5.4 2.4 6.2 2.4 0.9 0.1 3.7 1.1 6.4 2.5 2.7 1.4 5.6 2.4 6.3 2.5 0.6 0 3.6 1.1 6.4 2.5 2.7 1.4 5.8 2.5 6.7 2.5 0.9 0 3 1.1 4.7 2.5 1.7 1.4 3.8 2.5 4.8 2.5 0.9 0 3.7 1.1 6.2 2.4 2.5 1.4 7.3 3.6 10.6 5.2 9 4 42.3 20.5 49.5 24.6 3.5 2 8.3 4.5 10.9 5.6 2.5 1.2 4.6 2.6 4.6 3.2 0 0.6 1.1 1.1 2.5 1.1 1.4 0 2.5 0.5 2.5 1.1 0 0.6 1.9 1.7 4.1 2.7 2.1 0.9 5.7 2.7 7.7 4.1 4.3 3 6.9 4.7 13 8.2 2.4 1.4 5.8 3.5 7.7 4.7 1.9 1.1 6.8 4.3 11.1 6.9 4.3 2.7 8 5.3 8.4 5.7 0.5 0.7 5.7 4.2 13.7 9.3 5.9 3.7 16.9 11.8 18.3 13.5 0.9 1.1 2.2 2 2.8 2 1.2 0 11.3 7.5 11.9 9 0.2 0.5 1.1 0.9 2 0.9 0.7 0 2.4 1 3.5 2.2 2.2 2.2 2.5 2.5 10.3 8.2 2.7 2.1 5.2 4.1 5.6 4.5 0.4 0.4 5.3 4.6 11.1 9.2 10.5 8.4 23.9 19.9 29.4 25.2 1.5 1.5 3.1 2.7 3.3 2.7 0.4 0 4.1 3.6 8.4 8 4.3 4.5 8.2 8 8.5 8 0.9 0 38.1 37.2 38.1 38.1 0 0.5 2.6 3.3 5.9 6.4 5.9 5.9 7.9 8 20.5 22.9 4.1 4.8 9.3 10.6 11.5 13 2.2 2.4 4.1 4.9 4.1 5.8 0 0.9 1.1 2.1 2.5 2.8 1.4 0.7 2.5 1.7 2.5 2.4 0 0.6 2 3.2 4.5 5.8 2.5 2.7 5.3 6.2 6.4 7.9 1.1 1.7 2.7 3.6 3.6 4.1 0.9 0.5 1.6 1.5 1.6 2.1 0 1 14.2 20.9 17.7 24.7 1 1 2.7 3.7 4.1 5.9 1.2 2.1 2.7 4 3.2 4 0.5 0 1 0.6 1 1.5 0 0.7 1 2.5 2.1 3.7 1.1 1.2 3.7 4.9 5.8 8.3 2.1 3.3 5.9 9.2 8.5 13 2.5 3.8 4.6 7.5 4.6 8.2 0 0.7 0.5 1.2 1.1 1.2 0.6 0 2.4 2.4 3.8 5.3 1.5 2.8 3.7 6.9 4.9 8.9 1.4 2.1 3.3 5.4 4.5 7.4 1.1 2.1 2.7 4.6 3.6 5.6 1.6 2 7.1 11.8 16.5 29.7 3 5.8 5.9 10.6 6.6 10.9 0.6 0.2 1.1 1.1 1.1 2 0 0.9 2.4 6.3 5.3 12 2.8 5.8 7.3 14.8 9.8 20.3 2.5 5.4 6.7 14.7 9.5 20.5 2.7 5.8 5.7 12.7 6.7 15.5 1 2.6 3 7.8 4.5 11.3 5.8 14.7 7.4 18.6 9.5 24.5 1.1 3.5 2.8 7.9 3.7 9.9 0.9 2.1 3.3 9.4 5.6 16.1 2.1 6.8 4.7 14.1 5.6 16.3 1 2.1 1.7 4.9 1.7 6.3 0 1.4 1.1 5.1 2.5 8.3 1.4 3.2 2.5 6.9 2.5 8.4 0 1.5 1.1 5.8 2.6 9.5 1.4 3.7 3.1 9.3 3.6 12.4 1.1 5.3 2.2 9.9 7.4 30.3 1.2 4.8 2.6 11.5 3 15.1 0.5 3.6 1.6 8.8 2.6 11.6 1 2.8 1.9 6.6 1.9 8.4 0 1.7 1.4 10.8 3.1 19.9 3.8 21 7.4 48.5 10 77.9 3.7 41.3 3.6 122.4 -0.1 152.8 -0.2 2.1 -1.1 11.4 -1.9 20.8 -0.7 9.5 -1.9 19.8 -2.6 22.9 -0.7 3.2 -1.7 10.5 -2.2 16.3 -0.9 9.6 -2 15.8 -8.9 50.7 -5.3 26.3 -7.7 36.9 -9.9 43.8 -1.4 4.1 -2.4 8.5 -2.4 9.9 0 1.4 -1.4 6.7 -3 11.9 -1.6 5.1 -4.2 13.5 -5.8 18.6 -5.4 18.4 -7.5 25 -13.4 41.8 -7.5 22 -18.4 49.2 -27.7 69.5 -12.2 27.1 -21 45 -22.1 45.5 -0.6 0.2 -1 1.4 -1 2.6 0 1.1 -0.5 2.6 -1.1 3.2 -1 1.1 -7.4 12.9 -14.7 27.2 -1.1 2.1 -2.7 4.5 -3.6 5.3 -0.9 0.9 -1.6 2.2 -1.6 2.8 0 0.9 -4.3 8.3 -12 20.4 -0.9 1.2 -2.7 4.3 -4.1 6.7 -2.7 4.6 -3.2 5.4 -9.9 15.8 -2.4 3.7 -6.1 9.4 -8.2 12.7 -2.1 3.3 -4.7 7.1 -5.8 8.3 -1.1 1.2 -2.1 3 -2.1 3.7 0 0.9 -0.5 1.5 -1 1.5 -0.6 0 -2.2 2.2 -3.8 4.9 -1.5 2.7 -3.3 4.9 -4 4.9 -0.6 0 -1.7 1.2 -2.4 2.8 -0.7 1.5 -4.1 6.3 -7.4 10.8 -3.3 4.5 -6.7 9.3 -7.3 10.6 -0.6 1.5 -2.1 3 -3.1 3.3 -1.1 0.5 -2 1.4 -2 2.1 0 1.2 -3.3 5.6 -8.3 10.8 -1.6 1.6 -2.8 3.5 -2.8 4.1 0 0.6 -1.1 1.7 -2.5 2.5 -1.4 0.7 -2.5 2.1 -2.5 3.1 0 1 -1.1 2.4 -2.5 3.1 -1.4 0.7 -2.5 2.1 -2.5 3.1 0 1 -0.5 1.9 -1 1.9 -0.6 0 -4.1 3.7 -7.7 8.2 -3.7 4.6 -9.4 11.1 -12.6 14.6 -3.2 3.5 -9.2 9.8 -13 14 -6.2 6.7 -18.6 19 -46.3 46.5 -3.3 3.2 -6.2 5.8 -6.6 5.8 -0.2 0 -2.7 2.1 -5.3 4.7 -9.9 9.4 -13.4 12.4 -33.8 29.1 -1 0.9 -5.4 4.3 -9.9 7.9 -4.5 3.5 -9 7.3 -10.1 8.3 -1.2 1.1 -2.6 2 -3.2 2 -0.5 0 -1.9 1 -3 2.2 -1 1.1 -4.7 4.1 -8.2 6.4 -3.5 2.4 -6.3 4.7 -6.4 5.3 0 0.5 -0.7 0.9 -1.6 0.9 -1 0 -2.7 1.1 -3.8 2.4 -1.2 1.2 -8.7 6.7 -16.6 12 -7.9 5.3 -15 10.1 -15.7 10.6 -3.2 2.6 -10.8 7.2 -11.6 7.2 -0.6 0 -1.9 0.9 -2.7 2 -0.9 1.1 -2.7 2.5 -4.2 3.1 -1.4 0.6 -4.7 2.5 -7.4 4.2 -2.7 1.6 -7.2 4.2 -9.8 5.7 -2.6 1.4 -5.4 3.1 -6.2 3.8 -1.6 1.4 -14 8.5 -21.2 12.1 -2.7 1.4 -9.4 4.9 -14.8 8 -5.4 3.1 -11.3 6.2 -13 6.9 -1.7 0.9 -10 4.8 -18.6 8.8 -24.5 11.9 -34 16.1 -45.8 20.8 -3.7 1.5 -8.4 3.5 -10.5 4.5 -3.5 1.5 -6.1 2.5 -17.9 6.7 -2.4 0.9 -7.4 2.8 -11.1 4.3 -7.5 3.1 -14.3 5.4 -29.1 10 -5.4 1.7 -12.6 4.1 -16.1 5.3 -3.3 1.2 -9.2 3 -12.9 3.8 -3.6 0.9 -8 2.4 -9.9 3.2 -1.7 1 -4.2 1.7 -5.4 1.7 -1.2 0 -6.3 1.1 -11.1 2.4 -31.5 8.5 -83.6 18.7 -114.7 22.5 -5.1 0.6 -16.5 2 -25.4 3.1 -14.6 1.7 -51.1 3.7 -85 4.5 l-13.4 0.4 0 -409z m539.3 -195.4 c7.2 -2.4 17.8 -7.9 21.9 -11.5 0.7 -0.6 3.7 -2.8 6.6 -4.9 2.8 -2 7.2 -6.2 9.6 -9.3 l4.6 -5.4 0.4 -132.1 c0.1 -72.7 0.6 -132.1 1 -132.1 0.2 0 5.2 1.1 10.8 2.4 15.2 3.6 30.6 5.1 51.7 5.1 41.6 -0.1 71.6 -6.4 101.9 -21.4 10.8 -5.3 25.2 -13 30.9 -16.3 2.7 -1.6 6.3 -3.7 8 -4.6 1.7 -0.9 3.8 -2.2 4.7 -3.1 0.9 -0.9 2.1 -1.6 2.7 -1.6 0.5 0 3.2 -1.9 5.9 -4 2.7 -2.2 8.4 -6.6 12.6 -9.6 6.4 -4.6 30.6 -27.6 35.3 -33.6 16.6 -20.8 28 -46.4 31.4 -70 3.2 -21.8 0.9 -51.5 -5.4 -68.3 -3.7 -9.9 -10.3 -22.3 -13.1 -24.7 -0.4 -0.4 -2.5 -3.3 -4.8 -6.8 -7.8 -11.8 -14.3 -18.9 -34.8 -38.3 -1.1 -1 -2.6 -1.9 -3.3 -1.9 -0.9 0 -1.5 -0.5 -1.5 -1.1 0 -0.6 -2.5 -2.6 -5.6 -4.3 -3.1 -1.9 -5.6 -3.8 -5.6 -4.5 0 -0.7 -1.1 -1.2 -2.5 -1.2 -1.4 0 -2.5 -0.5 -2.5 -1.1 0 -0.6 -2.1 -2 -4.6 -3.1 -2.6 -1.1 -6.1 -2.8 -7.8 -3.7 -9.4 -4.9 -27.1 -11.4 -36.5 -13.1 -2.7 -0.5 -9.4 -1.9 -14.8 -3 -8.3 -1.7 -21.5 -2.2 -82.9 -2.7 -73.7 -0.6 -88.4 0 -96 3.7 -2.1 1.1 -4.7 2 -5.4 2 -2.5 0 -17.6 7.4 -19.3 9.4 -0.7 1 -2.1 1.7 -2.8 1.7 -4.1 0 -15.7 14.1 -17.8 21.8 -1.1 3.8 -1.5 78 -1.5 296 0 312.6 -0.2 297 5.8 298.6 3.8 1 14.2 -0.5 22.6 -3.1z"/>
  <path d="M1713.1 940.5 c-4.1 -0.5 -17.9 -3 -31.8 -5.6 -3.6 -0.7 -6.8 -1.9 -7.2 -2.5 -0.5 -0.6 -2 -1.1 -3.5 -1.1 -1.5 0 -4.8 -1.1 -7.4 -2.5 -2.5 -1.4 -5.7 -2.5 -6.9 -2.5 -1.4 0 -2.8 -0.6 -3.3 -1.4 -0.4 -0.7 -3.1 -2.4 -5.9 -3.7 -7.2 -3.3 -12.6 -6.8 -21.5 -13.9 l-7.7 -6.1 0.2 -95.4 0.4 -95.5 4.9 -1.4 c33.9 -9.8 48.1 -11.5 74 -9.3 16 1.4 27.7 3.5 35.3 6.4 1.6 0.6 3.7 1.1 4.7 1.1 3.2 0 31.5 13.2 38.2 17.8 2 1.5 4.6 3.2 5.7 3.8 11.4 7.1 26.2 18.9 31 25 2 2.6 4.5 5.2 5.4 5.7 1 0.5 1.7 1.7 1.7 2.7 0 0.9 0.5 1.9 1.1 2.1 1.9 0.6 10 12 10 14 0 1 0.4 1.9 1 1.9 0.5 0 1.6 1.9 2.5 4.1 0.9 2.1 2.6 6.2 3.8 8.9 2.2 4.8 4.3 12.2 6.4 22.3 0.5 2.7 1 11.9 1.1 20.3 0 16.2 -2.8 31.5 -7.5 41.3 -1.4 2.7 -2.4 5.6 -2.4 6.4 0 0.9 -1.1 3 -2.5 4.7 -1.4 1.7 -2.5 3.7 -2.5 4.5 0 3.6 -15.2 21.3 -24 28 -4.6 3.5 -17.6 10.5 -19.4 10.5 -0.6 0 -3.6 1.1 -6.3 2.5 -2.8 1.4 -6.6 2.5 -8.3 2.5 -1.7 0 -6.3 0.9 -10 2 -6.8 1.9 -40.3 3.3 -49.5 2.2z"/>
  <path d="M2034.9 1152.5 c-1.1 -1.1 -1.5 -34.3 -1.5 -141.6 0 -123.3 0.2 -140.8 1.9 -143.8 1.1 -2.1 2.5 -3.7 3.1 -3.7 0.7 0 1.2 -0.7 1.2 -1.7 0 -0.9 1.2 -2.6 2.8 -3.6 1.5 -1.1 4.5 -3.5 6.4 -5.2 5.8 -5.2 17.3 -10.5 22.5 -10.5 8.7 0.1 9 1 9 22.1 l0 18.8 7.8 -5.8 c4.2 -3.3 8.2 -6.7 8.7 -7.5 0.5 -0.9 1.5 -1.6 2.1 -1.6 0.6 0 3.5 -1.6 6.4 -3.6 4.8 -3.2 9.8 -6.2 16.6 -9.8 4.5 -2.5 11.1 -5.1 20.9 -8.4 12.7 -4.2 41.1 -5.7 50.8 -2.6 10.8 3.5 16.2 5.7 22 9.2 6.2 3.8 7.2 6.9 3.8 12.7 -1 1.7 -2.4 4.3 -3 5.9 -0.7 1.5 -2.1 2.7 -3.1 2.7 -0.9 0 -2 0.7 -2.4 1.6 -1 2.5 -23.9 13.2 -28.7 13.5 -2.5 0.1 -7.1 -1 -10.3 -2.4 -10.9 -4.8 -19.4 -6.9 -30.6 -7.4 -9.9 -0.6 -12 -0.2 -18.9 2.5 -9.2 3.7 -12.2 6.1 -18.7 13.9 -8.3 10 -15 26 -18.3 43.9 -1 5.1 -2.6 13.2 -3.5 17.9 -1.4 6.8 -1.7 26.2 -1.7 89.4 l-0.1 80.8 -3.6 5.3 c-2.1 3 -5.2 6.3 -6.9 7.4 -6.9 4.6 -16.2 9.2 -20 10 -2.2 0.4 -4.3 1.4 -4.7 2 -1.1 1.6 -8.5 1.4 -10.3 -0.4z"/>
  <path d="M2270.3 1153.3 c-1.4 -0.2 -5.6 -1.1 -9.3 -1.9 -10.1 -2.1 -23.1 -8.5 -33.5 -16.8 -9.2 -7.3 -19.8 -18.8 -21.3 -22.9 -0.5 -1.2 -1.4 -2.2 -2 -2.2 -0.6 0 -1.6 -1.2 -2.1 -2.7 -0.4 -1.5 -1.9 -3.8 -3.2 -5.2 -1.4 -1.5 -4.2 -6.2 -6.3 -10.6 -2.1 -4.5 -4.2 -8.3 -4.7 -8.7 -0.9 -0.6 -2.4 -4.2 -5.8 -14.2 -0.7 -2 -2.6 -9.3 -4.2 -16.1 -2.6 -11 -2.8 -15.5 -2.8 -42.1 0 -26.7 0.2 -30.9 2.8 -42.1 1.6 -6.8 4 -14.8 5.2 -17.9 5.6 -13.9 9 -21.8 10.4 -23.5 0.7 -1 2.5 -4 3.7 -6.4 1.4 -2.6 2.8 -4.7 3.5 -4.7 0.5 0 1 -0.6 1 -1.4 0 -2.2 15.3 -21.5 21.4 -27 1.2 -1.1 4.9 -4.5 8.2 -7.5 7.9 -7.4 12.5 -11.1 13.7 -11.1 0.5 0 1.7 -0.9 2.6 -2 0.9 -1.1 2.7 -2.5 4.2 -3.1 1.4 -0.6 4.7 -2.5 7.4 -4.2 2.7 -1.7 6.9 -4 9.3 -5.1 2.4 -1 6.1 -2.6 8 -3.5 13.6 -6.1 24.1 -8 42.2 -8.2 14.2 0 17.6 0.4 26 3.2 12.5 4.1 20.3 8 29.6 15.3 6.7 5.3 17.8 16.7 21 21.4 0.7 1 3.1 4.5 5.3 7.5 2.1 3.2 4 6.3 4 6.9 0 0.6 0.7 1.9 1.6 2.7 3.1 3.2 14.2 27.7 16.8 36.9 6.3 23.5 8.3 48.1 4.3 56 -2.4 4.8 -9 11 -16.6 15.5 -3.1 1.7 -6.3 4 -7.2 4.8 -4.6 4.3 -9.4 4.6 -95.1 5.1 -55.3 0.1 -84.5 0.7 -84.5 1.6 0 2.6 5.2 21.2 6.9 24.4 0.9 1.9 1.7 4.3 1.7 5.6 0 1.1 0.4 2.1 1 2.1 0.5 0 1.6 1.9 2.5 4.1 0.9 2.1 2.2 5.1 3 6.4 0.9 1.4 2.2 4.2 3.3 6.2 1 2.1 2.8 4.8 4.1 6.1 1.2 1.4 2.2 3.2 2.2 4.1 0 2.1 19.7 21.5 24.2 23.9 2 1 5.3 3.1 7.4 4.6 2.1 1.6 4.3 2.8 5.1 2.8 0.6 0 3.5 1.1 6.3 2.5 2.7 1.4 6.4 2.5 8 2.5 1.6 0 6.2 0.6 10.1 1.5 9.3 1.9 22.9 -0.2 31.2 -4.9 3.3 -1.7 11.1 -8.4 17.3 -14.8 12.9 -12.9 22.4 -18.8 30.8 -18.8 7.7 0 12.2 7.1 7.3 11.1 -1 0.9 -1.9 2.1 -1.9 2.7 0 1.4 -6.7 10 -12 15.5 -2.2 2.4 -4.1 4.7 -4.1 5.3 0 0.7 -0.4 1.2 -0.9 1.2 -0.6 0 -3 1.9 -5.3 4.1 -14.3 13.6 -37.2 26.2 -60.6 33.3 -7.8 2.4 -35.4 4.2 -41.4 2.7z m108.2 -176.5 c0 -7.1 -10.6 -35.4 -15 -39.7 -0.6 -0.7 -1.1 -2.2 -1.1 -3.5 0 -1.2 -0.5 -2.2 -1 -2.2 -0.6 0 -2.1 -2.2 -3.3 -4.9 -1.2 -2.7 -2.7 -4.9 -3.2 -4.9 -0.5 0 -1.4 -1.2 -1.7 -2.7 -1.1 -3.6 -12.9 -15.8 -21.6 -22.5 -15.5 -11.6 -28.8 -16.2 -47 -16.2 -16.9 0.1 -22.5 2.4 -33 13.4 -6.7 6.8 -14 17.1 -14 19.5 0 0.6 -1.1 3.5 -2.4 6.4 -5.4 12.1 -12.4 39.2 -13.5 52.6 l-0.6 7.7 78.8 0 78.7 0 0 -2.8z"/>
  <path d="M2517.4 1146.9 c-7.1 -15.7 -7.8 -17.4 -7.8 -19 0 -1 -1.1 -3.5 -2.4 -5.6 -1.2 -2.1 -2.7 -5.7 -3.2 -8 -0.5 -2.4 -1.4 -4.7 -1.9 -5.4 -1.1 -1.5 -7.1 -17.9 -8.5 -23.5 -0.5 -2 -1.9 -5.4 -3 -7.7 -1.2 -2.2 -2.1 -4.8 -2.1 -5.9 0 -1 -0.5 -2.8 -1.1 -4.1 -1.9 -3.6 -6.4 -16.1 -9.3 -25.6 -0.9 -2.7 -2.2 -6.6 -3.1 -8.7 -0.9 -2 -2.4 -5.9 -3.2 -8.7 -0.9 -2.7 -3.1 -8.8 -4.9 -13.6 -1.9 -4.7 -3.7 -10 -4.1 -11.8 -0.4 -1.7 -1.4 -4.2 -2.2 -5.6 -0.9 -1.4 -2.4 -4.9 -3.5 -8 -1 -3.1 -3.6 -10.3 -5.7 -16.1 -2.1 -5.8 -4.3 -12.1 -4.9 -14.2 -0.6 -2 -2.6 -7.5 -4.3 -12.4 -1.9 -4.7 -4.3 -11.5 -5.6 -15.1 -1.4 -3.6 -3.1 -8.3 -4.1 -10.5 -1 -2.2 -2.1 -5.2 -2.5 -6.6 -0.4 -1.4 -2.2 -6.3 -4 -11.1 -5.9 -15.8 -8.2 -22.3 -8.9 -25 -0.7 -3.2 2.6 -9.5 7.4 -13.9 2 -1.7 4.5 -4.2 5.6 -5.3 1.1 -1.2 2.7 -2.2 3.5 -2.2 0.7 0 2.1 -0.9 3 -2 5.1 -5.9 24 -9.4 25.5 -4.5 0.4 1.1 1.4 3.8 2.4 5.8 5.7 12.7 8 18.4 8 19.7 0.1 0.7 1.1 3.6 2.5 6.3 1.4 2.7 2.4 5.7 2.5 6.6 0 0.9 1.1 3.8 2.4 6.8 2.5 5.2 6.8 16.8 8.9 23.7 0.6 2.1 1.6 4.8 2.4 6.2 1.2 2.5 3.1 7.8 7.5 21 1.5 4.1 3.1 7.9 3.7 8.5 0.6 0.7 1.1 2.6 1.1 4.2 0 1.6 0.6 4.1 1.4 5.4 1.6 3 7.2 18.2 12.2 33.3 2 5.8 4.3 12.5 5.3 14.8 1 2.4 2.5 6.2 3.3 8.5 0.9 2.4 2.8 7.7 4.3 11.8 1.6 4.1 3.6 9.4 4.5 11.8 2.1 6.1 5.6 15.6 8 22.6 1.1 3.2 2.5 5.8 3 5.8 1.1 0 4.9 -8.3 4.9 -10.9 0 -1.1 1.2 -4.6 2.6 -7.7 1.5 -3.1 3.1 -7.2 3.7 -9.3 1.5 -5.7 5.9 -18.1 8 -22.5 0.9 -2.1 1.7 -4.9 1.7 -6.2 0 -1.2 0.5 -2.8 1.1 -3.5 0.6 -0.7 3.2 -7.3 5.7 -14.7 2.5 -7.5 5.6 -15.7 6.9 -18.3 1.2 -2.5 2.4 -5.6 2.4 -6.8 0 -1.2 0.9 -3.8 1.9 -5.7 1 -1.9 2.4 -5.2 3 -7.4 1.9 -6.2 6.3 -18.4 8.3 -22.8 0.9 -2.1 1.7 -4.5 1.7 -5.3 0 -0.7 1.4 -4.5 3.1 -8.2 1.7 -3.7 3.1 -7.4 3.1 -8.3 0.1 -0.9 1.1 -3.7 2.5 -6.4 1.4 -2.7 2.4 -5.8 2.5 -6.9 0 -1 0.5 -2.4 1.1 -3.1 1 -1 4.1 -8.8 8.5 -21.5 3 -8.7 5.6 -12 12.7 -17.3 3.7 -2.7 7.3 -5.4 8 -6.1 4 -3.3 14.1 -6.4 19.8 -6.1 5.6 0.4 6.1 0.6 6.4 3.7 0.2 1.9 -0.5 5.2 -1.5 7.4 -1.1 2.2 -2.7 6.9 -3.7 10.3 -2 7.1 -4 12.6 -6.9 19.8 -1.2 2.7 -2.6 6.8 -3.1 9.2 -0.5 2.4 -2 6.2 -3.2 8.4 -1.4 2.4 -2.4 4.8 -2.4 5.7 0 1.6 -3.8 12 -7.5 20.4 -1.2 2.8 -2.4 6.1 -2.4 7.2 0 1 -1.1 4.2 -2.5 6.9 -1.4 2.8 -2.5 5.7 -2.5 6.3 0 0.6 -0.9 3.1 -2 5.6 -1.1 2.6 -2.4 5.7 -3 7.1 -0.5 1.4 -2.1 5.6 -3.6 9.3 -1.4 3.8 -2.6 7.7 -2.6 8.8 0 1 -0.5 2.4 -1.1 3 -0.6 0.7 -2.2 4.6 -3.6 8.7 -4.6 13.6 -7.9 22.3 -9 23.5 -0.6 0.6 -1.1 2.1 -1.1 3.3 0 1.2 -1.4 5.1 -3 8.7 -1.6 3.6 -3.6 8.5 -4.5 10.9 -0.7 2.4 -2.6 7.2 -4 10.5 -1.4 3.5 -3.5 9.5 -4.9 13.6 -1.4 4.1 -3 7.9 -3.6 8.7 -0.6 0.6 -1.1 2 -1.1 3.1 0 1 -0.9 3.5 -1.9 5.4 -1.1 2.1 -3 6.8 -4.3 10.5 -4.2 12.4 -5.3 15.5 -7.4 20.5 -3.8 8.9 -7.4 18.6 -7.4 19.9 0 1.7 -7.1 9.2 -8.7 9.2 -0.6 0 -1.6 0.7 -2.1 1.6 -3 4.6 -18.8 12 -25.7 12 -4.1 0 -4.6 -0.5 -7.7 -7.1z"/>
  <path d="M2682.5 1153.3 c-0.6 -0.5 -1 -103.5 -1 -228.9 l0 -228.1 5.8 -6.2 c3.2 -3.5 7.3 -7.1 9.2 -8 1.9 -0.9 4.2 -2.5 5.2 -3.5 4.8 -4.8 19.5 -7.5 22.9 -4.2 1.1 1.1 1.5 53.3 1.5 227 0 198.4 -0.2 226 -1.9 229.2 -2.1 4.1 -7.5 9.9 -9.3 9.9 -0.6 0 -1.6 0.7 -2.1 1.6 -1 1.6 -4.6 4.1 -12.2 8.4 -4.8 2.7 -16.5 4.6 -18.1 2.8z"/>
  <path d="M2850.3 1153.3 c-17.3 -2.6 -27.6 -4.7 -30.6 -6.2 -1.9 -1 -4.2 -1.7 -5.4 -1.7 -1.1 0 -4.3 -1.2 -7.2 -2.6 -2.7 -1.5 -6.1 -3.1 -7.2 -3.7 -21.2 -10.6 -50.2 -39.2 -56.5 -55.5 -4.8 -12.7 -5.3 -16.2 -4.8 -33.1 l0.4 -16.9 5.3 -10.8 c6.8 -14 19 -26.6 34.1 -35.1 8.7 -5.1 28.9 -14.1 31.3 -14.1 1 0 3.6 -0.9 5.7 -1.9 2.2 -1 6.2 -2.2 8.9 -2.8 2.7 -0.6 9.2 -2.4 14.2 -3.7 5.1 -1.5 15.5 -3.8 22.9 -5.2 26.5 -5.1 35.5 -7.3 41.7 -10.5 2.1 -1 4.7 -1.9 5.8 -1.9 1.1 0 3.3 -1.1 5.1 -2.5 1.7 -1.4 3.7 -2.5 4.6 -2.5 2.7 0 13.5 -10.9 16.2 -16.3 4.9 -10 1 -22 -10.4 -31.2 -3.8 -3.2 -7.5 -5.7 -8.4 -5.7 -0.9 0 -3.7 -1 -6.4 -2.4 -7.3 -3.5 -37.2 -8 -47.9 -7.3 -24.7 1.7 -48.1 11.8 -60.9 26 -7.8 8.7 -9.3 10.8 -9.3 13 0 1.1 -1.4 3.8 -3.1 6.1 -1.7 2.2 -3.1 4.6 -3.1 5.3 0 0.6 -1.1 1.6 -2.5 2 -1.4 0.4 -2.5 1.2 -2.5 1.9 0 2.6 -8.4 2.7 -14.2 0.1 -3.2 -1.5 -6.6 -2.6 -7.3 -2.6 -0.9 0 -2.7 -1 -4.3 -2.1 -11.3 -8.5 -16.3 -17.2 -15.6 -26.5 0.9 -9.8 6.1 -18.9 16.7 -29.7 5.3 -5.3 10.1 -9.8 10.9 -9.8 0.6 0 2.1 -1.1 3.3 -2.5 1.2 -1.4 2.7 -2.5 3.2 -2.5 1 0 8.9 -4.8 11.6 -7.2 2.5 -2 16.2 -7.9 26 -11.1 9.8 -3.2 10.4 -3.3 42.7 -3.3 32.4 0.1 32.9 0.1 44.5 3.6 10.5 3.2 21.9 7.9 29.1 12.1 1.4 0.7 3.1 1.7 3.8 2.1 4.6 2.4 15.7 10.6 16.2 12.1 0.4 0.9 1.1 1.6 1.9 1.6 1.7 0 16.3 15.3 23.1 24.5 3.8 5.1 7.3 11.6 9.3 17.4 l3.2 9.4 0 113.9 0 113.9 -4 3.3 c-2.8 2.4 -5.3 3.2 -9.3 3.2 -5.3 0 -16.5 -3.7 -19.7 -6.6 -0.9 -0.7 -2.4 -2 -3.3 -2.7 -0.9 -0.6 -2.8 -2.4 -4.3 -3.6 -3 -2.6 -3.1 -2.5 -25 6.2 -8.2 3.3 -25.5 5.6 -45.1 6.1 -10.9 0.2 -21.4 0.1 -23.5 -0.1z m34 -47.5 c20.4 -6.3 31 -13.4 44.3 -29.1 7.5 -9 8.9 -17.2 8.9 -56.8 0 -25.1 -0.2 -29.3 -1.7 -28.8 -1 0.4 -4.2 1.4 -7.2 2.1 -3 0.7 -8.9 2.4 -13.4 3.7 -7.5 2.2 -11.6 3.2 -37.1 9.8 -5.8 1.5 -15.2 4.1 -21 5.8 -5.8 1.6 -11.3 3 -12.1 3 -4.6 0 -23.9 7.8 -34.3 14 -5.3 3.1 -13.9 11.6 -15 14.8 -0.4 1.1 -1.1 2.1 -1.7 2.1 -0.6 0 -1.7 2.1 -2.6 4.7 -0.7 2.5 -2 5.3 -2.7 6.2 -0.6 0.9 -1.5 5.7 -1.9 10.6 -0.5 7.8 -0.1 10 2.4 14.8 3 5.9 12.1 15.6 15 15.6 0.9 0 3 1.1 4.7 2.5 1.7 1.4 4.1 2.5 5.3 2.5 1.2 0 4.2 0.9 6.8 2 7.1 3.1 16.5 4.1 36.1 3.7 14.8 -0.2 19.5 -0.7 27.2 -3.2z"/>
  <path d="M3003.3 1152.5 c-1.1 -1.1 -1.5 -51 -1.5 -216.6 0 -202.6 0.1 -215.3 2.2 -218.9 2.6 -4.7 10.5 -12.5 16.6 -16.5 10 -6.4 23.3 -8.8 26.5 -4.5 1.4 1.7 1.6 18.1 1.7 85.3 l0 83.2 2.8 -0.9 c1.5 -0.5 4.1 -1.9 5.7 -3.1 1.6 -1.4 3.5 -2.4 4.2 -2.4 0.6 0 3.5 -1 6.3 -2.4 21 -9.6 33.8 -12.9 52.9 -13.5 8.9 -0.2 18.6 0.1 22.3 0.9 14.5 3.1 28.6 8 35.6 12.6 1.7 1.1 5.6 3.6 8.5 5.6 5.8 3.8 24 21.3 27.6 26.5 1.2 1.7 3.8 5.4 5.9 8.4 2 2.8 3.7 5.7 3.7 6.3 0 0.6 0.7 1.7 1.7 2.5 1.6 1.4 4.2 6.3 10.6 20.5 6.8 15.1 11 38.3 11 61.2 0.1 16.1 -2.4 37.5 -5.3 45.8 -1.1 3.1 -2 6.4 -2 7.4 0 1 -2.5 6.9 -5.6 13 -3 6.2 -5.6 11.8 -5.6 12.6 0 0.7 -0.5 1.6 -1 1.9 -1 0.4 -8.9 11.8 -8.9 12.9 0 0.7 -2.5 3.6 -15.1 17.1 -14.2 15.1 -41.8 37.8 -46 37.8 -1.1 0 -2 0.4 -2 1 0 0.5 -1.9 1.6 -4 2.5 -2.2 1 -6.3 2.7 -9 4 -16 7.3 -31.7 10.4 -51.3 10.5 -15.7 0 -29.9 -2.1 -38 -5.7 -3 -1.4 -5.9 -2.4 -6.8 -2.4 -0.9 -0.1 -3.8 -1.1 -6.6 -2.4 l-4.8 -2.4 -3.8 3 c-2 1.6 -4.3 3.6 -5.2 4.2 -2.8 2.4 -14.1 6.2 -18.1 6.2 -2.2 0 -4.7 -0.6 -5.6 -1.5z m137.7 -37.5 c9 -2 17.9 -5.8 21 -9.3 1.2 -1.4 2.7 -2.5 3.2 -2.5 1.4 0 7.3 -6.1 7.3 -7.4 0 -0.6 0.7 -1.6 1.6 -2.1 2.5 -1.6 13.2 -19.9 13.2 -22.6 0 -0.7 1.1 -3.6 2.5 -6.6 1.2 -2.8 4 -11 5.8 -18.2 3.2 -12.2 3.3 -14.3 3.3 -39 -0.1 -20.8 -0.5 -27.5 -2.2 -33.4 -1.2 -4.1 -2.6 -9.4 -3.1 -11.8 -1.2 -5.4 -13.6 -30.9 -15.1 -30.9 -0.6 0 -1.1 -0.6 -1.1 -1.4 0 -2.1 -9.9 -13.6 -17.9 -20.9 -4.1 -3.6 -7.5 -7.1 -7.8 -7.7 -0.2 -0.5 -1.1 -1 -2 -1 -0.9 0 -2.6 -1.1 -3.8 -2.5 -1.2 -1.4 -3 -2.5 -3.7 -2.5 -0.9 0 -2.2 -0.7 -3 -1.7 -0.9 -1 -3.8 -3 -6.7 -4.3 -2.8 -1.5 -6.1 -3.1 -7.1 -3.7 -3.8 -2.4 -26.2 -6.3 -35.5 -6.3 -11 0 -19.9 2.1 -29.9 6.9 -12.2 6.1 -11.1 -4.1 -11.3 101.7 l0 93.3 7.3 7.1 c4 4 9.5 8.5 12.4 10 2.7 1.6 5.1 3.3 5.1 4 0 0.5 0.6 1 1.2 1 0.7 0 3.3 1.2 5.9 2.8 14.1 8.8 41.8 12.9 60.2 8.9z"/>
  <path d="M448.4 390.6 c-8.5 -2.5 -18.7 -6.2 -23.5 -8.8 -1.4 -0.7 -4 -2.1 -5.7 -3 -1.9 -0.9 -4 -2.5 -4.8 -3.5 -0.9 -1 -2.1 -1.9 -2.7 -1.9 -1.9 0 -15.6 -13.5 -21.4 -21.2 -5.9 -7.8 -13 -20.5 -13 -23.4 0 -1.1 -0.6 -2.6 -1.2 -3.2 -1.7 -1.7 -6.2 -25.1 -6.2 -32.5 0 -3.3 0.9 -10.9 1.9 -16.9 3.6 -21.4 11.5 -37.5 26.1 -53.7 4.2 -4.7 18.2 -16.1 19.7 -16.1 0.4 0 2.7 -1.2 5.3 -2.8 22.5 -14 61.5 -16.6 84.8 -5.6 2.7 1.2 5.4 2.2 6.2 2.2 0.6 0 3.2 1.2 5.6 2.8 2.5 1.6 6.9 4.6 10 6.6 5.2 3.3 18.9 16.5 21.6 20.7 0.7 1 3 4.3 5.1 7.4 4.8 6.8 9.4 17.2 12.9 28.9 2.4 7.9 2.6 11.3 2.2 27.8 -0.4 13.6 -1.1 20.9 -2.7 25.7 -3 9 -11.8 26.7 -15.2 30.6 -1.6 1.6 -2.8 3.3 -2.8 3.8 0 0.5 -1 1.9 -2.1 3 -1.2 1.1 -3.7 3.7 -5.6 5.8 -1.9 2.1 -4 3.8 -4.7 3.8 -0.7 0 -1.6 0.9 -2 1.9 -0.4 1 -3.5 3.5 -6.7 5.6 -25.7 16.6 -56.9 22.6 -81 15.8z"/>
 </g>
 <g fill="#57a695" stroke="#57a695" stroke-width="1.2">
  <path d="M709.3 1815 c-9.2 -1.6 -21 -5.3 -25.4 -8 -1 -0.6 -4.2 -2.2 -7.1 -3.7 -2.8 -1.4 -5.4 -3.3 -5.8 -4.3 -0.4 -1 -1.4 -1.7 -2.2 -1.7 -1 0 -2.6 -1 -3.7 -2.1 -1.1 -1.2 -4.1 -4.2 -6.4 -6.6 -6.6 -6.4 -8.2 -8.2 -8.2 -9 0 -0.4 -1.4 -2.2 -3.1 -4.1 -1.7 -1.9 -3.1 -4.1 -3.1 -4.9 0 -0.9 -0.9 -2.4 -1.9 -3.3 -5.1 -5.1 -10.6 -27.1 -10.9 -42.9 -0.4 -24 5.8 -42.9 19.9 -60.6 5.7 -7.1 16.5 -17.3 18.4 -17.3 0.7 0 1.6 -0.5 1.9 -1.1 0.7 -2.2 9.3 -6.7 22 -11.8 17.9 -6.9 46.8 -6.9 63.7 0.1 10.4 4.3 12 5.1 14.8 6.8 17.6 11.1 23.9 17.6 35 35 9.4 15.1 14.2 39.1 11.5 58.4 -1.6 11.4 -6.6 28.1 -9.4 31.3 -0.9 1 -2.5 4 -3.7 6.6 -1.2 2.6 -3.8 6.3 -5.7 8.4 -2 2.1 -3.6 4.2 -3.6 4.7 0 0.4 -2 2.5 -4.5 4.5 -2.4 2.1 -5.3 4.7 -6.4 5.9 -1.1 1.1 -2.7 2.1 -3.5 2.1 -0.9 0 -1.7 0.7 -2.1 1.6 -0.5 1.4 -2.4 2.5 -12.6 7.9 -7.1 3.7 -16 6.6 -26 8.3 -13.2 2.4 -18.9 2.4 -32.2 0z"/>
  <path d="M339.5 1726.8 c-21.4 -5.7 -35.7 -11.9 -48.5 -20.8 -2.1 -1.6 -4.5 -2.8 -5.1 -2.8 -0.7 0 -1.5 -0.4 -1.7 -0.9 -0.1 -0.6 -3.5 -3.3 -7.2 -6.2 -11.4 -8.7 -28.8 -28.2 -35.7 -40 -4.5 -7.4 -11.3 -21.3 -13 -26.2 -1 -3 -2.8 -7.8 -4 -10.9 -6.4 -17.6 -8.9 -51.9 -5.1 -71.1 1.1 -5.4 2.2 -11.5 2.5 -13.6 1.6 -10.6 16.8 -44.5 22.9 -51.2 0.9 -0.9 2.6 -3.2 3.7 -4.9 1.1 -1.7 2.7 -3.7 3.6 -4.2 0.9 -0.5 1.6 -1.5 1.6 -2.1 0 -0.5 2.2 -3.3 4.9 -6.2 2.7 -2.8 4.9 -5.7 4.9 -6.3 0 -0.6 0.6 -1.1 1.4 -1.1 0.7 0 3.6 -2.2 6.2 -4.9 2.7 -2.7 5.1 -4.9 5.4 -4.9 0.4 0 3.8 -2.4 7.7 -5.2 9.5 -7.1 10.3 -7.5 23.3 -13.7 13.9 -6.7 32.7 -12.6 46.4 -14.6 26.3 -3.8 60.1 0.2 82.3 9.9 10 4.5 20 9.5 21.4 10.9 0.9 0.9 2.4 1.6 3.1 1.6 0.9 0 3 1.4 4.7 2.8 1.6 1.6 3.7 3.2 4.3 3.5 7.1 2.7 36.1 33.3 40.2 42.4 0.9 1.7 2 3.2 2.5 3.2 0.5 0 1.5 1.5 2.2 3.5 0.6 1.9 2.1 4.7 3.1 6.4 10.4 17.8 17.9 48.2 18.1 72.7 0 30.3 -7.9 57.4 -25.4 86.6 -5.8 9.8 -28.3 34.9 -31.3 34.9 -0.7 0 -1.5 0.5 -1.5 1.2 0 0.6 -3.2 3.3 -7.1 5.8 -4 2.6 -7.4 5.1 -7.8 5.4 -0.9 1.1 -9 5.7 -16.5 9.4 -7.5 3.7 -13.5 5.9 -28.7 10.5 -11.9 3.7 -13.5 3.8 -38.3 4.2 -25.4 0.5 -26.3 0.4 -39.6 -3.1z"/>
  <path d="M849 1522 c-7.8 -1.9 -12.9 -4.6 -21.3 -11.5 -18.4 -15.3 -26.3 -42.3 -18.2 -62.3 1.7 -4.2 3.1 -8 3.1 -8.7 0 -3.6 14.3 -18.9 22.5 -24 7.2 -4.6 19.5 -8 28.9 -8 9.2 -0.1 22.3 3.1 29.2 6.9 5.6 3.2 18.3 14.7 18.3 16.6 0 0.7 0.5 1.4 1.1 1.4 2.1 0 8 14.5 9.5 23.5 3.2 19.2 -2.6 38 -16 51 -8.5 8.4 -15.7 12.6 -25.7 15.2 -8.8 2.2 -22.6 2.2 -31.5 0z"/>
  <path d="M2784.8 1486.6 c-2.7 -1.5 -5.9 -3.6 -7.3 -4.7 -3.3 -3 -6.9 -10.6 -6.9 -15 l0 -3.8 5.9 0.7 c5.9 0.9 8.9 3.2 8.9 6.9 0 2.6 7.5 6.7 14.2 7.8 5.7 1 15.6 -1.6 19.4 -5.1 3.6 -3.2 5.8 -9.3 6.7 -18.6 1 -8.8 0.6 -8.9 -5.1 -4.1 -3.7 3.2 -12.5 6.2 -17.9 6.2 -5.9 0 -15.3 -3.1 -20 -6.6 -8.2 -6.1 -14.6 -21.6 -14.6 -35.3 0.1 -13.7 4.3 -25.5 11.8 -32.8 5.4 -5.3 7.9 -6.7 15.8 -8.4 9.5 -2 19.2 0.1 26.6 5.9 l5.2 4.2 0 -4.3 0 -4.5 6.3 0 6.3 0 -0.5 45.5 -0.4 45.4 -3.5 5.9 c-7.8 13.2 -15.1 16.9 -33.4 16.9 -10.5 0 -13.5 -0.5 -17.6 -2.6z m28.2 -43 c3.2 -1.2 9.5 -6.9 9.5 -8.7 0 -0.5 1 -2.8 2.1 -5.2 1.6 -3.1 2.1 -7.1 2.1 -14.7 -0.1 -12.6 -3.1 -20 -10.1 -25.9 -3.8 -3.3 -5.6 -3.8 -11.8 -3.8 -11.3 0 -16.7 4.1 -20.7 15.1 -5.8 16.7 0 38.3 11.6 43 3.6 1.5 13.5 1.5 17.2 0.1z"/>
  <path d="M2203.5 1455.4 c-11.1 -6.1 -15.3 -11.6 -19.3 -25.2 -2.8 -10.3 -3 -18.1 -0.4 -28.7 2.5 -10 7.7 -18.7 13.9 -22.8 11.6 -7.5 28.3 -7.1 36.9 1.2 l4.2 4.1 0 -20.4 0 -20.4 7.4 0 7.4 0 0 56.9 0 56.9 -6.8 0 -6.8 0 0 -5.2 0 -5.3 -2.8 3.3 c-5.1 6.2 -10.5 8.4 -20 8.4 -6.6 -0.1 -9.9 -0.7 -13.6 -2.8z m23.7 -10.4 c10.9 -6.2 15.2 -22.1 11.3 -41.6 -1.2 -6.1 -2.6 -8.4 -6.9 -12.9 -5.3 -5.2 -5.6 -5.3 -13.6 -5.3 -7.2 0.1 -8.8 0.5 -12.1 3.5 -8 7.1 -12 22.6 -9.2 35.9 3.7 17.6 18.2 27.2 30.6 20.4z"/>
  <path d="M2291.9 1455.4 c-6.7 -3.2 -12.4 -7.5 -12.4 -9.3 0 -0.7 -0.7 -1.9 -1.7 -2.4 -5.2 -3 -9.9 -27.6 -7.1 -38.1 3.1 -12 4.7 -15.1 11.4 -21.9 9.4 -9.4 20.5 -12.6 34.6 -9.6 16.8 3.6 28.1 19.3 28.3 39.3 l0 5.2 -30.4 0 -30.6 0 0.7 6.2 c2.7 22.9 32.2 30.7 42.8 11.3 l3 -5.3 6.2 0.6 c3.3 0.5 6.4 1 6.7 1.4 1.5 1.5 -2.7 9.5 -7.4 14.6 -7.8 8.3 -14.6 10.9 -27.7 10.8 -8.5 0 -12.1 -0.6 -16.5 -2.7z m38.3 -50.2 c0 -4.2 -4.6 -12.7 -8.8 -16.3 -3.7 -3.2 -5.2 -3.6 -12.7 -3.6 -7.3 0 -9.4 0.5 -13.4 3.3 -4.5 3 -10.9 13.5 -10.9 17.4 0 1.1 6.4 1.5 22.9 1.5 21.6 0 22.9 -0.1 22.9 -2.4z"/>
  <path d="M2423 1455.3 c-6.1 -3 -12.1 -8.2 -15.3 -13.4 -3 -4.7 -5.6 -16.3 -5.7 -25.4 0 -8.9 3.1 -23.6 5.7 -26.5 1 -1 1.7 -2.4 1.7 -2.8 0 -0.5 1.5 -2.2 3.3 -4 9.2 -8.5 21.5 -11.9 34 -9.3 11.6 2.4 18.1 7.7 22.4 18.6 2.5 6.3 2.1 6.8 -5.7 8 -5.2 0.9 -7.1 -0.2 -7.1 -4.3 0 -1.1 -1.9 -4.1 -4.2 -6.6 -4.1 -4.2 -4.7 -4.5 -12.5 -4.5 -11.4 0 -16.2 2.8 -20.7 12.4 -3.8 8 -3.8 27.7 0 36.1 8 17.9 31.4 17.9 37.8 0 l2.4 -6.6 6.3 0.4 c7.7 0.5 8.3 2 4 11.1 -3.8 8.3 -7.9 12.5 -15.6 16.5 -8.3 4.2 -22.6 4.2 -30.9 0.1z"/>
  <path d="M2530 1455.7 c-7.4 -3.7 -8 -7.1 -8 -41.3 l0 -29.1 -4.9 0 -4.9 0 0 -4.9 0 -4.9 4.9 0 4.9 0 0 -10 c0 -6.8 0.5 -10.5 1.7 -11.6 1.6 -1.7 10.1 -6.8 11.3 -6.8 0.4 0 0.6 6.4 0.6 14.2 l0 14.2 6.8 0 6.8 0 0 4.9 0 4.9 -6.8 0 -6.8 0 0 28.4 0 28.4 3.2 1.2 c1.7 0.7 5.1 1.2 7.4 1.2 l4.2 0 0 6.1 c0 4.3 -0.5 6.3 -2 6.8 -4.1 1.6 -13.6 0.6 -18.4 -1.9z"/>
  <path d="M2580.1 1455.4 c-6.6 -3.1 -13.6 -8.3 -13.6 -9.9 0 -0.5 -0.7 -1.9 -1.7 -2.8 -5.9 -5.8 -8.3 -32 -4.1 -45.3 2 -6.4 7.7 -13.7 14.7 -19.2 2.6 -1.9 15.7 -5.3 20.5 -5.3 6.1 0 16.7 2.7 20.7 5.3 5.1 3.3 13 12.1 13 14.6 0 1 0.5 2.4 1.1 3.1 2 2.1 3.8 12.6 3.8 21.2 -0.1 12 -4.5 23.6 -11.5 30.8 -3 3 -6.1 5.4 -6.7 5.4 -0.6 0 -3.2 1.1 -5.9 2.5 -6.9 3.6 -22.5 3.3 -30.3 -0.4z m26.6 -10.9 c2.5 -1.5 6.2 -5.2 8.4 -8.4 3.8 -5.6 4 -5.9 4 -19.9 0 -13.1 -0.2 -14.6 -3.2 -19.5 -5.2 -8.5 -10 -11.4 -19.4 -11.4 -4.3 0 -9 0.6 -10.5 1.5 -13.5 7.2 -18.3 29.6 -10.1 47.4 5.2 11.3 20.5 16.5 30.9 10.4z"/>
  <path d="M2701.9 1454.9 c-8.5 -4.3 -13.7 -9.6 -17.4 -17.7 -2.7 -6.1 -3.1 -8.4 -3.1 -21.3 -0.1 -13 0.2 -15.3 3.1 -21.4 3.3 -7.3 8.9 -14.2 11.5 -14.2 0.9 0 1.6 -0.5 1.6 -1 0 -1.6 5.2 -3.6 13.5 -5.3 8.9 -1.9 20.8 -0.1 26.3 4 1.9 1.2 3.7 2.4 4.2 2.4 1.5 0 7.2 6.7 9.9 11.8 4 7.4 5.7 20.8 4.2 32.4 -2.1 15.6 -7.9 24.2 -20.4 30.2 -6.3 3.1 -8.9 3.6 -17.3 3.6 -8.2 -0.1 -11 -0.7 -16.1 -3.3z m26.3 -9.9 c2.6 -1.1 4.9 -2.8 5.6 -3.6 0.5 -0.9 1.6 -2.4 2.5 -3.2 3 -3.2 5.8 -14.1 5.8 -22.6 0 -11.3 -3 -19.5 -9.3 -25.6 -4.7 -4.6 -4.9 -4.7 -14.3 -4.7 l-9.5 0 -5.4 5.4 c-6.2 6.1 -8.4 13 -8.4 25.7 0 7.7 3.1 20.8 4.9 20.8 0.6 0 1.5 1.1 1.9 2.5 1.1 3.3 9.9 7.3 16.5 7.4 3 0 7.4 -1 9.9 -2.1z"/>
  <path d="M2902.7 1455 c-4.6 -2.4 -6.7 -4.5 -9 -9.2 -3.8 -7.5 -3.8 -13.7 -0.1 -21 4.7 -9.3 10.4 -12.1 30.8 -15.6 25.2 -4.2 23.1 -3.3 23.1 -9.9 0 -4.8 -0.6 -6.3 -4.2 -9.9 -4.1 -4.1 -4.3 -4.2 -15 -4.2 -12.6 0 -16.1 1.7 -19.8 9.9 l-2.4 5.2 -5.6 -0.9 c-3.1 -0.5 -6.1 -1.1 -6.4 -1.4 -2.5 -1.5 6.4 -17.8 9.6 -17.8 0.9 0 1.6 -0.5 1.6 -1.1 0 -2.4 15.8 -6.3 25.1 -6.3 8.2 0.1 18.8 3.1 23.5 6.7 5.8 4.5 7.1 9.8 7.1 30.6 0.1 17.6 1.6 38.7 3.2 44.2 0.7 2.6 0.5 2.7 -6.2 2.7 -3.8 0 -6.9 -0.1 -6.9 -0.2 0 -0.2 -0.7 -2.5 -1.7 -5.1 l-1.6 -4.7 -3.6 2.8 c-10.6 8.8 -30.1 11.3 -41.6 5.2z m32.3 -10.4 c7.8 -3.8 12.5 -12 12.5 -21.4 0 -6.9 -0.1 -7.3 -2.7 -6.7 -1.6 0.4 -9.4 2.1 -17.6 3.8 -17.2 3.6 -21.8 6.4 -21.8 13.4 0 5.2 2.4 9 7.2 12 5.7 3.3 14.6 2.8 22.4 -1.1z"/>
  <path d="M2484.9 1416.2 l0 -40.8 6.8 0 6.8 0 0 40.8 0 40.8 -6.8 0 -6.8 0 0 -40.8z"/>
  <path d="M2650.6 1400.1 l0 -56.9 6.8 0 6.8 0 0 56.9 0 56.9 -6.8 0 -6.8 0 0 -56.9z"/>
  <path d="M2860.9 1416.2 l0 -40.8 6.8 0 6.8 0 0 40.8 0 40.8 -6.8 0 -6.8 0 0 -40.8z"/>
  <path d="M153.4 1375.5 c-9.2 -1.5 -26.3 -10.8 -35.1 -19.2 -7.1 -6.9 -16.8 -19.3 -16.8 -21.5 0 -0.5 -0.9 -2.5 -2 -4.6 -3.2 -6.3 -6.9 -27.6 -6.1 -35.3 1.2 -10.1 4.2 -22.4 6.3 -25.2 1 -1.4 1.7 -3.2 1.7 -4.1 0 -2.6 10.8 -17.1 16.5 -22.1 8.3 -7.3 9.5 -8.3 18.2 -12.5 14 -6.7 18.7 -7.8 34.4 -7.8 13.9 0 18.1 0.7 29.9 5.2 6.9 2.6 20.5 11.5 21.5 14.1 0.4 1 1.5 1.7 2.6 1.7 1 0 1.9 0.6 1.9 1.2 0 0.7 1.4 2.5 3.1 4 1.7 1.5 3.1 3.5 3.1 4.3 0 0.9 0.5 1.6 1 1.6 1.5 0 8.3 14 11.6 23.5 4 11.8 4 30.9 0 42.1 -3.8 10.5 -8.7 20.5 -10.9 22.4 -1 0.7 -1.7 2.1 -1.7 3.1 0 0.9 -1.1 2.2 -2.5 3 -1.4 0.7 -2.5 2 -2.5 2.8 -0.1 1.4 -7.7 7.8 -14.6 12.2 -7.2 4.7 -19.8 9.9 -26.2 11 -7.5 1.2 -24.9 1.2 -33.4 0z"/>
  <path d="M2484.9 1351.3 l0 -8 6.8 0 6.8 0 0 8 0 8 -6.8 0 -6.8 0 0 -8z"/>
  <path d="M2860.9 1351.3 l0 -8 6.8 0 6.8 0 0 8 0 8 -6.8 0 -6.8 0 0 -8z"/>
  <path d="M2289.9 1321.1 c-11.6 -2.8 -20.3 -12.5 -20.3 -22.8 0 -5.6 4.6 -14.7 9.2 -18.3 4.6 -3.6 15.2 -6.7 29.2 -8.5 17.8 -2.4 17.8 -2.4 18.3 -8.8 0.2 -4.5 -0.2 -6.2 -3.2 -9.6 -3.2 -4 -4 -4.2 -12.6 -4.7 -13.4 -0.9 -18.3 1.1 -22.3 8.7 l-3.1 5.9 -5.6 -0.7 c-3.1 -0.5 -5.7 -1 -5.9 -1.2 -1 -1 1.5 -9.5 3.6 -12 5.9 -7.3 7.9 -8.5 17.6 -11 10.6 -2.8 15.8 -3 26.6 -0.5 9.4 2.2 13.5 5.2 16.9 12.4 2 4.3 2.5 8.8 3.1 35.4 0.5 22.9 1.1 31 2.4 32.5 1.5 1.7 1 2 -5.7 2 -6.7 0 -7.5 -0.2 -8.8 -3.1 -0.9 -1.7 -1.5 -4.2 -1.5 -5.3 0 -1.2 -0.4 -1.6 -1 -0.9 -2.1 3 -14.1 8.8 -21.8 10.5 -5.8 1.4 -9.6 1.4 -15.1 0.1z m20.2 -12 c10.8 -3.6 16.5 -11.6 16.5 -23.3 l0 -6.7 -4 1 c-2.2 0.6 -10.1 2.2 -17.7 3.7 -11.8 2.2 -14.1 3.1 -16.9 6.3 -5.9 6.3 -4.1 14.3 4.6 18.8 4.8 2.6 10.3 2.6 17.6 0.1z"/>
  <path d="M2388.5 1319.9 c-4.1 -1.4 -8.2 -4 -10.3 -6.3 l-3.5 -4.1 0 5.2 0 5.1 -6.2 0 -6.2 0 0 -56.3 0 -56.3 6.8 0 6.8 0 0 19.7 0 19.7 3.6 -3.3 c3.7 -3.5 14.2 -7.5 19.3 -7.5 4.8 0 16 4.1 19.8 7.2 8 6.6 14.2 21.8 14.2 34.9 0 7.2 -3.2 21.5 -5.6 25.4 -9.5 15.3 -24.7 21.9 -38.8 16.8z m15.6 -11.5 c9.8 -4.3 14.6 -14.5 14.3 -30.1 -0.1 -11.5 -2.1 -18.4 -6.8 -23.9 -3.8 -4.6 -7.9 -6.4 -14.6 -6.4 -6.6 0 -10.1 1.6 -14.6 6.3 -9.9 10.5 -10 39.6 -0.2 49.4 5.8 5.9 14.7 7.8 21.9 4.7z"/>
  <path d="M2470.4 1319.6 c-9.5 -3.3 -16.3 -8.9 -20.9 -17.4 -3.3 -6.3 -3.6 -7.3 -3.6 -23.3 0 -15.5 0.2 -17.1 3.1 -22.3 3.8 -6.9 8 -12.4 9.5 -12.4 0.7 0 2.1 -1 3.2 -2.2 1.2 -1.2 6.3 -3.3 11.4 -4.6 12.1 -3.1 18.8 -1.9 33.8 5.9 1.5 0.7 3.1 2.5 3.5 3.6 0.4 1.2 1.1 2.2 1.7 2.2 0.5 0 2.5 3 4.5 6.6 3.2 6.1 3.5 7.3 3.5 22.5 0 14.5 -0.2 16.7 -2.8 22.3 -3 6.2 -13 16.7 -16 16.7 -0.9 0 -3.2 0.9 -5.2 1.9 -6.3 3.3 -16.9 3.5 -25.6 0.5z m20.8 -11.1 c12.5 -4.2 19 -23.4 14.1 -41.4 -4 -14.5 -13.5 -20.9 -27.8 -18.4 -22.3 3.7 -25.2 50.1 -3.8 59.6 4.2 1.9 12.2 2 17.6 0.2z"/>
  <path d="M2601.7 1319.6 c-8.8 -3.1 -13.4 -7.7 -15.5 -15.6 -2.1 -8.5 0.2 -16.5 6.8 -22.5 5.4 -5.1 6.2 -5.3 26 -9 7.5 -1.4 15.7 -3 18.4 -3.7 l4.7 -1.2 -0.6 -5.4 c-1.2 -11.1 -7.7 -14.8 -23.4 -13.7 -7.2 0.5 -8.7 1 -11.4 4.1 -1.7 2 -3.5 5.2 -4 7.2 -0.7 3.5 -0.7 3.5 -7.8 2.6 -3.8 -0.5 -7.2 -1.1 -7.5 -1.5 -1.4 -1.2 7.7 -16.1 10.9 -17.9 7.3 -4.3 15.7 -6.4 26.2 -6.4 14.3 -0.1 23.4 3.2 28 10.5 2.6 4.2 2.8 5.8 3.2 34 0.4 25.2 0.7 30.2 2.6 33.8 1.1 2.4 2.1 4.5 2.1 4.7 0 0.1 -3.3 0.4 -7.4 0.4 -4.9 0 -7.7 -0.5 -7.9 -1.5 -0.4 -0.9 -0.9 -3.2 -1.2 -5.1 l-0.9 -3.5 -4 2.8 c-2.2 1.5 -4.2 3.1 -4.6 3.5 -1.2 1.5 -17.4 6.2 -21.4 6.2 -2.1 -0.1 -7.3 -1.2 -11.4 -2.6z m23.7 -10.5 c11.1 -3.7 16.5 -11.9 16.5 -25.2 0 -4.5 -0.4 -5.1 -2.1 -4.3 -1.2 0.5 -9.2 2.2 -17.7 4 -16.8 3.3 -20.4 5.4 -21.8 12.6 -1.5 7.3 6.4 14.7 15.8 14.8 1.9 0.1 6.1 -0.7 9.3 -1.9z"/>
  <path d="M2745 1320.6 c-2.8 -0.9 -5.6 -1.9 -6.1 -2.4 -0.5 -0.6 -1.9 -1 -3 -1 -2.7 0 -11.3 -9.2 -15.6 -16.6 -3.2 -5.8 -3.5 -6.8 -3.5 -21.6 0 -15 0.1 -16 3.7 -22.3 6.8 -12.6 15.1 -18.2 30.4 -20.7 5.7 -1 20.9 2.6 24.7 5.8 6.8 5.7 9.3 8.5 12.6 14.7 3.5 6.3 3.6 7.2 3.5 22.4 0 15.3 -0.1 16.1 -3.8 22.5 -5.4 9.5 -11.6 14.7 -21.5 17.9 -9.2 3 -13.7 3.2 -21.5 1.1z m19.2 -12.6 c8.7 -3.6 13.9 -14.2 13.9 -28.8 0 -22.9 -11.5 -34.3 -30.7 -30.4 -5.6 1.1 -11.1 6.8 -14 14 -4.7 12.5 -2.4 33.3 4.6 40.8 5.7 5.9 17.3 7.9 26.2 4.5z"/>
  <path d="M2920.2 1320.5 c-9.9 -2.8 -12.5 -4.3 -17.8 -10 -8.5 -8.9 -12.7 -24.5 -10.5 -39.7 2.5 -17.2 10.9 -28 25.6 -32.5 10.1 -3.2 14 -3.2 24.1 -0.1 16.8 5.2 26.1 19.2 26.1 39.6 0 15.7 -3.1 24.9 -11.1 32.8 -9.8 9.5 -24.5 13.6 -36.4 10z m18.7 -12.4 c4.7 -2 6.8 -4.1 10.9 -11 2.5 -4.1 2.8 -6.3 2.8 -18.1 0 -12.2 -0.2 -14 -3.2 -18.9 -4.8 -8.3 -8.2 -10.9 -15.3 -11.8 -12.5 -1.5 -19.5 2.2 -25.2 13.2 -2.4 4.7 -2.8 7.4 -2.8 17.3 0 9.9 0.5 12.6 2.8 17.3 5.1 9.6 10.6 13.4 20.2 13.5 3.2 0.1 7.7 -0.6 9.9 -1.6z"/>
  <path d="M2688.3 1318.7 c-7.5 -4.6 -7.4 -4.1 -7.8 -38.2 l-0.5 -31.3 -4.8 0 -4.8 0 0 -5.6 0 -5.6 4.9 0 4.8 0 0.4 -10.8 0.4 -10.8 5.6 -3.3 c3.1 -1.9 5.9 -3.5 6.6 -3.5 0.5 -0.1 0.9 6.3 0.9 14.1 l0 14.2 6.8 0 6.8 0 0 5.6 0 5.6 -6.8 0 -6.8 0 0 26.7 c0 16 0.5 27.6 1.2 29.1 1 1.7 2.6 2.4 6.7 2.4 l5.3 0 1.2 6.1 c1.1 5.7 1 6.2 -1.4 6.8 -5.6 1.5 -15 0.7 -18.7 -1.5z"/>
  <path d="M2188 1263.5 l0 -56.3 7.4 0 7.4 0 0 50.1 0 50.1 27.8 0 27.8 0 0 6.2 0 6.2 -35.3 0 -35.3 0 0 -56.3z"/>
  <path d="M2536.8 1278.9 l0 -40.8 6.8 0 6.8 0 0 4.7 0.1 4.6 3.6 -4 c4 -4.3 9.8 -7.8 13.2 -7.8 3.7 0 14 4.1 14 5.6 0 0.7 -1.1 3.7 -2.5 6.6 -2.4 4.7 -2.7 5.1 -5.7 4 -6.1 -2.4 -11.1 -1.5 -15.2 2.5 -5.8 5.9 -6.7 10.5 -7.2 39.3 l-0.5 26.2 -6.8 0 -6.7 0 0 -40.8z"/>
  <path d="M2808.9 1278.9 l0 -40.8 6.2 0 6.2 0 0 5.9 c0.1 4.9 0.2 5.4 1.5 3.3 0.9 -1.4 2.2 -3.2 3.1 -4.1 0.9 -0.9 1.6 -2.1 1.6 -2.5 0 -1.4 9.5 -5.2 12.7 -5.2 1.5 0 4.3 0.9 6.3 1.9 1.9 1 4.3 1.9 5.2 1.9 2.4 0 2.2 1.1 -1.1 7.7 -2.4 4.6 -3.2 5.3 -5.2 4.6 -5.2 -2 -12.5 -1.2 -15.1 1.7 -6.7 7.3 -7.2 9.5 -7.5 39 l-0.4 27.5 -6.8 0 -6.7 0 0 -40.8z"/>
  <path d="M2862.1 1278.9 l0 -40.8 6.8 0 6.8 0 0 40.8 0 40.8 -6.8 0 -6.8 0 0 -40.8z"/>
  <path d="M661.1 1290.4 c-2 -0.2 -6.4 -1.1 -9.9 -1.9 -3.3 -0.7 -8.4 -1.7 -11.1 -2.2 -10.4 -2 -27 -9 -37.7 -16.1 -3.1 -2 -6.2 -4 -7.1 -4.5 -5.3 -2.6 -19.3 -16.6 -31.2 -30.9 -1 -1.2 -8.9 -14.7 -12.1 -20.9 -2.7 -4.9 -6.4 -15.1 -9.2 -24.7 -2.5 -8.7 -2.8 -12.6 -2.8 -32.8 0 -20.3 0.4 -24 2.8 -32.8 3 -10.1 7.4 -22.5 8.9 -24.7 0.4 -0.6 3 -5.1 5.4 -9.9 2.6 -4.7 7.9 -12.5 11.8 -17.3 7.2 -8.7 19.3 -20.4 21.2 -20.4 0.5 0 1.5 -0.7 2 -1.5 1.5 -2.4 7.7 -6.4 18.4 -12.2 20 -10.6 39.3 -15.3 63 -15.3 25.4 0 46.8 5.8 68 18.3 8.7 5.2 12.5 7.7 13.4 9.2 0.5 0.9 1.6 1.6 2.4 1.6 1.9 0 23.3 22.4 23.3 24.4 0 0.9 0.5 1.6 1.1 1.6 1.2 0 8 10.6 12 18.6 10.6 21.9 15 43.7 13.5 69.9 -0.9 15.6 -6.4 37.7 -12 48.1 -6.2 11.6 -11.4 19.9 -13 20.9 -0.9 0.5 -1.6 1.5 -1.6 2.1 0 0.7 -1 2.2 -2.1 3.5 -1.2 1.2 -4.8 5.1 -8 8.7 -7.1 7.5 -20.9 18.9 -27 21.9 -2.4 1.2 -4.6 2.6 -4.9 3.1 -0.7 1 -12.6 6.2 -22.3 9.6 -16 5.7 -40.2 8.7 -55 6.8z"/>
  <path d="M2744.7 1224.9 c0.6 -2 3 -6.9 5.1 -11.1 l3.7 -7.8 8.5 0 c4.7 0 8.5 0.4 8.5 0.7 0 0.4 -2.5 3.7 -5.6 7.2 -3.1 3.6 -5.6 6.9 -5.6 7.3 0 0.4 -1.4 2.2 -3.1 4 -2.4 2.2 -4.5 3.1 -8 3.1 -4.8 0 -4.8 0 -3.6 -3.3z"/>
  <path d="M2862.1 1215.3 l0 -8.2 6.8 0 6.9 0 -0.4 7.8 -0.4 7.7 -6.4 0.4 -6.6 0.4 0 -8z"/>
  <path d="M66.3 1084.7 c-9.4 -3.3 -23.9 -10.8 -26.7 -13.6 -0.4 -0.4 -2.7 -2.2 -5.3 -4.1 -3.7 -2.8 -11 -11 -17.9 -20 -3 -4 -8.3 -14.8 -11.1 -22.9 -3 -8.5 -3.2 -11 -3.2 -29.1 -0.1 -18.4 0.1 -20.4 3.3 -29.4 1.9 -5.3 5.2 -12.6 7.4 -16.5 2.1 -3.7 4.6 -8 5.4 -9.4 0.7 -1.5 2.4 -3.1 3.3 -3.7 1.1 -0.6 2 -1.6 2 -2.2 0 -2.8 25.5 -23.5 29.1 -23.5 0.4 0 3 -1 5.9 -2.4 10.8 -4.7 20.2 -6.8 33.1 -7.3 11.1 -0.4 15 0 25.5 2.7 11.9 3.1 25.2 8.7 26.1 10.9 0.2 0.5 1.2 1 2.1 1 1.7 0 4.1 1.9 14 10.5 5.1 4.6 15.1 16.8 15.1 18.6 0 0.5 1.4 2.6 3.1 4.8 1.7 2.2 3.1 4.6 3.1 5.3 0 0.6 0.9 3 2 5.1 6.6 13.2 8.5 39.5 4.3 56.8 -2.2 9.3 -7.8 22.3 -12.2 28.9 -1.1 1.7 -3.2 4.8 -4.6 6.8 -4.1 5.9 -16.1 17.3 -21.5 20.3 -2.7 1.6 -5.1 3.3 -5.1 4 0 0.5 -0.9 1 -2 1 -1.1 0 -3.5 1 -5.2 2.4 -1.9 1.2 -4.7 2.6 -6.4 3 -1.7 0.4 -6.4 1.9 -10.4 3.2 -6.2 2.2 -10.1 2.6 -25.4 2.5 -16.6 -0.1 -18.9 -0.4 -27.8 -3.6z"/>
  <path d="M1009.9 1049.4 c-4.7 -1 -11.1 -2.4 -14.2 -2.8 -7.8 -1.5 -18.7 -5.6 -30.4 -11.3 -5.4 -2.7 -10.6 -4.9 -11.4 -4.9 -0.9 0 -1.5 -0.5 -1.5 -1.1 0 -0.6 -1.9 -2 -4.2 -3.1 -2.2 -1 -4.8 -2.7 -5.7 -3.8 -0.9 -1 -2.4 -1.9 -3.2 -1.9 -1 0 -1.7 -0.5 -1.7 -1.1 0 -0.5 -2.1 -2.5 -4.6 -4.2 -12.5 -8.3 -42.3 -44 -42.4 -50.7 0 -0.9 -1.1 -2.8 -2.5 -4.6 -1.4 -1.7 -2.5 -3.7 -2.5 -4.6 0 -0.9 -1.1 -3.5 -2.5 -5.9 -1.4 -2.5 -3 -6.4 -3.6 -9 -0.7 -2.5 -2 -7.1 -3 -10.1 -8.4 -26 -8.2 -60 0.6 -91.5 3.2 -11.8 12.5 -32.3 16.6 -37.2 1 -1 1.7 -2.8 1.7 -4 0 -1.1 0.4 -2.1 1 -2.1 0.5 0 2.2 -2.2 4 -4.9 1.7 -2.7 3.5 -4.9 4 -4.9 0.6 0 1 -0.7 1 -1.7 0 -0.9 1.4 -2.6 3.1 -3.7 1.7 -1.1 3.1 -2.5 3.1 -3.1 0 -1.1 15.8 -17.4 16.9 -17.4 0.2 0 3.7 -2.5 7.5 -5.6 11.6 -9.2 12.9 -9.9 24.4 -15.5 22.5 -10.9 33.1 -14.2 52.3 -16.8 29.6 -3.8 58.6 -0.5 83.7 9.6 7.5 3.1 28.2 13.4 29.1 14.5 0.4 0.5 2.7 2.1 5.3 3.7 2.5 1.5 4.6 3.3 4.6 4 0 0.6 0.9 1.1 1.9 1.1 1 0 2.4 1.1 3.1 2.5 0.7 1.4 1.9 2.5 2.6 2.5 2.4 0 24 23.1 28.9 30.8 1.6 2.7 3.6 5.2 4.3 5.7 0.6 0.4 1.2 1.9 1.2 3.1 0 1.2 0.5 2.5 1.1 2.7 1.4 0.5 15 28.7 15 30.8 0 0.9 1.1 4.9 2.4 9 3 9.6 5.1 22.9 5.9 38 0.9 13.6 -2.4 39.6 -6.1 50.5 -1.2 3.7 -2.2 7.4 -2.2 8.4 0 2.8 -10.9 25.5 -16.2 33.8 -2 3.1 -4 6.4 -4.3 7.4 -0.5 1 -1.6 2.7 -2.5 3.7 -1 1 -5.3 6.1 -9.6 11.3 -7.9 9.3 -26.5 25.9 -28.9 25.9 -0.7 0 -1.5 0.5 -1.7 1 -0.6 1.5 -12 8.9 -13.7 8.9 -0.9 0 -2.8 1.1 -4.6 2.5 -1.7 1.4 -3.6 2.5 -4.3 2.5 -0.6 0 -4 1.4 -7.4 3 -9.4 4.5 -17.2 6.9 -32.8 10.1 -16.9 3.5 -43.3 3.8 -57.5 1z"/>
  <path d="M538.7 915.3 c-5.8 -1 -13.9 -3.8 -17.9 -6.3 -1 -0.6 -4 -2.2 -6.4 -3.6 -5.2 -2.7 -20.8 -17.4 -20.8 -19.5 0 -0.7 -0.5 -1.5 -1 -1.7 -1.7 -0.7 -7.8 -12.5 -10.1 -19.8 -3.8 -11.5 -5.3 -21.6 -4.6 -29.3 0.9 -8.2 6.6 -27 9 -29.9 1 -1 1.7 -2.4 1.7 -2.8 0 -2.7 15.7 -21.8 17.9 -21.8 0.6 0 2.4 -1.2 3.8 -2.6 11.4 -10.6 34.5 -16.3 56.3 -13.7 20.2 2.5 42.1 16.1 52.2 32.8 1.2 2.1 3.1 4.5 4.1 5.4 1 1 1.7 2.5 1.7 3.2 0 0.9 0.9 3.1 2 5.2 2.8 5.6 5.4 19.4 5.4 29.7 0 31.9 -18.7 59.1 -49.5 71.7 -6.8 2.7 -10.4 3.3 -22.9 3.7 -8.2 0.2 -17.6 0 -21 -0.6z"/>
  <path d="M103.4 838.6 c-8.5 -2 -14.3 -4.1 -20.5 -7.5 -1 -0.6 -3.8 -2.1 -6.2 -3.5 -2.4 -1.2 -6.4 -4.3 -8.9 -6.8 -2.5 -2.5 -5.2 -4.5 -5.9 -4.5 -0.6 0 -1.2 -0.6 -1.2 -1.2 0 -0.7 -2 -3.2 -4.3 -5.7 -2.4 -2.4 -5.4 -6.3 -6.8 -8.9 -1.4 -2.5 -3.1 -5.4 -3.7 -6.4 -2.1 -3.3 -6.2 -13.5 -6.2 -15.3 0 -1 -0.9 -5.1 -1.9 -9 -4.2 -15.8 -0.4 -42.7 8.2 -57.3 0.6 -1 2.2 -4 3.6 -6.4 1.4 -2.6 3.1 -4.7 3.7 -4.7 0.7 0 1.2 -0.6 1.2 -1.5 0 -1.6 17.2 -18.3 18.9 -18.3 0.5 0 1.9 -0.7 2.7 -1.5 4.1 -3.7 5.6 -4.7 6.7 -4.7 0.7 0 3.1 -1 5.3 -2.2 2.2 -1.2 9.5 -3.6 16.1 -5.1 30.6 -7.4 60.7 2.2 84.2 26.8 3.8 4.1 7.1 8 7.1 8.7 0 0.7 0.7 2.1 1.7 3 6.4 6.6 14.3 32.7 14.3 47.4 0 9.3 -4.8 29.8 -8 34.8 -1 1.6 -1.9 3.6 -1.9 4.3 0 0.9 -1.4 3.3 -3.1 5.6 -1.7 2.2 -3.1 4.5 -3.1 5.1 0 1.2 -15.8 17.7 -16.9 17.7 -0.5 0 -2.2 1.4 -4 3 -5.6 5.2 -20.9 12 -32.7 14.5 -13.6 2.8 -25.6 2.8 -38.5 -0.1z"/>
  <path d="M889.9 750.7 c-4 -3.5 -4.3 -4.5 -4.3 -10.3 0 -8.9 3.6 -12.4 12.6 -12.4 5.4 0 6.7 0.5 9.8 4 2.6 3 3.6 5.3 3.6 8.7 0 5.3 -0.4 5.9 -5.9 10.5 -5.6 4.5 -10.1 4.3 -15.7 -0.5z"/>
  <path d="M847.9 717.8 c-4.1 -1.1 -8.3 -4.3 -11.9 -9.5 -3.1 -4.2 -3.6 -5.9 -3.6 -13.1 0 -8 0.1 -8.4 5.3 -14 3.5 -3.8 7.2 -6.3 11.3 -7.7 5.7 -1.9 6.6 -1.9 13 0.2 7.3 2.2 8 2.8 13.4 10.9 4.3 6.6 4.5 14 0.5 22 -1.7 3.2 -3.7 5.8 -4.6 5.8 -0.7 0 -1.7 0.7 -2.1 1.7 -1.4 3.3 -13.9 5.4 -21.3 3.6z"/>
  <path d="M748.9 695.7 c-0.6 -0.2 -4.6 -1.4 -8.7 -2.5 -17.6 -4.9 -35.1 -15.5 -45 -27.1 -1.7 -1.9 -3.7 -4.1 -4.5 -4.9 -5.1 -5.2 -12.5 -19.3 -16.8 -31.7 -2.4 -6.9 -2.7 -10.5 -2.7 -27.2 0 -17.3 0.2 -20 3.1 -28.4 1.9 -5.1 4.8 -12 6.7 -15.5 1.9 -3.3 4 -7.3 4.7 -8.7 3 -5.4 20.3 -22.9 26.1 -26.2 8 -4.7 18.6 -9.3 26.8 -12.1 8.2 -2.7 11.6 -3.1 25.4 -3.1 9.8 0 18.2 0.7 22 1.7 8.7 2.5 19.4 6.7 20.9 8.2 0.6 0.6 2.2 1.2 3.3 1.2 1.2 0 2.4 0.5 2.6 1 0.2 0.5 2.5 2.2 5.1 3.8 2.5 1.5 4.6 3.3 4.6 4 0 0.6 0.6 1.1 1.4 1.1 1.1 0 10.3 9 15.3 15.2 3.1 3.7 9.3 13.5 9.3 14.7 0 0.6 1 3.3 2.4 5.8 2.8 5.4 5.7 15.3 7.5 26.1 1.7 9.8 0.6 23.9 -2.6 33.6 -1.2 4 -2.4 7.7 -2.4 8.4 0 1.7 -6.3 15.2 -7.4 16.1 -0.5 0.4 -1.7 2.4 -2.8 4.6 -1.1 2.1 -4 5.8 -6.3 8.3 -2.4 2.6 -4.6 5.3 -4.9 6.3 -0.4 1 -1.2 1.9 -1.9 1.9 -0.7 0 -2.6 1.2 -4.2 2.8 -8.4 8 -21 15.5 -31.2 18.2 -2 0.6 -6.8 2 -10.5 3 -6.1 1.7 -31.3 2.7 -35.3 1.4z"/>
  <path d="M205.8 628.4 c-10.4 -1.7 -24.5 -7.3 -33.9 -13.5 -4.3 -2.8 -14.3 -11 -16.3 -13.2 -0.6 -0.6 -3.1 -3.5 -5.4 -6.2 -2.5 -2.7 -5.6 -6.8 -6.8 -9.3 -1.4 -2.4 -2.8 -5.2 -3.5 -6.2 -2.4 -3.7 -5.2 -10.6 -6.2 -14.8 -0.6 -2.4 -2 -7.7 -3.1 -11.8 -2.7 -10 -2.5 -25 0.5 -37.7 2.6 -10.9 9.6 -28.4 11.4 -28.4 0.5 0 1 -0.6 1 -1.4 0 -4.5 24.9 -29.6 29.2 -29.6 1 0 1.7 -0.5 1.7 -1 0 -1.6 14.7 -7.9 26 -11 14.6 -4.1 31.3 -4.1 45.8 0 11 3.1 28.1 10.9 32.2 14.7 1.2 1.2 2.7 2.2 3.1 2.2 2.5 0 24.1 25.2 24.1 28.2 0 0.5 1.1 3.1 2.4 5.8 5.6 11.5 6.8 15.5 8.2 27.3 1.7 15.2 0.4 32.9 -3.2 42.5 -3.6 9.4 -10 22.3 -11.3 22.3 -0.5 0 -1 0.9 -1 1.9 0 2.4 -21.8 24.1 -24.1 24.1 -0.9 0 -1.9 0.5 -2.1 1 -0.7 1.9 -12.7 7.9 -21.9 11 -7.4 2.5 -12.2 3.1 -24.7 3.5 -8.5 0.2 -18.4 0 -21.9 -0.5z"/>
  <path d="M662.8 520.8 c-7.5 -4.7 -10.9 -12.7 -8.7 -20.9 2 -7.7 5.9 -12 12.9 -14.3 5.3 -1.7 6.3 -1.7 11.8 0 4.1 1.4 7.2 3.5 9.6 6.4 3.2 4.1 3.6 5.6 3.5 12.6 0 7.1 -0.5 8.7 -3.5 12 -7.4 8.4 -16.7 9.9 -25.6 4.2z"/>
  <path d="M604.2 476.1 c-2.7 -0.6 -5.4 -1.7 -6.1 -2.4 -0.7 -0.7 -2.1 -1.2 -3.2 -1.2 -2.1 0 -10.3 -8 -15 -14.8 -2.7 -4 -3 -5.6 -3 -17.3 0 -14.1 0.7 -16.1 9.8 -25.7 12.5 -13.4 36.6 -13.6 49.6 -0.5 6.2 6.2 7.1 7.7 9.5 15.6 6.1 19.2 -4 38.8 -23.3 45.1 -8.7 2.8 -10.9 3 -18.4 1.2z"/>
  <path d="M452.7 436 c-20 -2.2 -43 -10.1 -55.4 -18.9 -2 -1.5 -4.2 -2.7 -4.8 -2.7 -0.7 0 -2.2 -1.1 -3.5 -2.5 -1.2 -1.4 -3 -2.5 -4 -2.5 -0.9 0 -1.6 -0.4 -1.6 -1 0 -0.5 -3.1 -3.3 -6.9 -6.4 -6.6 -5.2 -22.5 -23 -24.5 -27.2 -0.4 -1 -2.5 -4.3 -4.5 -7.4 -11.8 -18.2 -19.3 -43.5 -20.7 -69.3 -1.1 -21.8 3.7 -44.8 14.1 -66.4 2.4 -4.9 4.7 -9.3 5.3 -9.6 0.7 -0.5 1.2 -1.9 1.2 -3.2 0 -1.2 0.4 -2.4 1 -2.4 0.5 0 2.2 -2.2 4 -4.9 1.7 -2.7 3.5 -4.9 4 -4.9 0.6 0 1 -0.9 1 -1.9 0 -1 1.1 -2.5 2.5 -3.3 1.4 -0.9 2.5 -2 2.5 -2.6 0 -1.2 12.4 -13.2 13.7 -13.2 0.6 0 1.6 -1.1 2.4 -2.5 0.7 -1.4 2.1 -2.5 3.1 -2.5 1 0 1.9 -0.5 1.9 -1.1 0 -2.1 30.7 -19.9 34.4 -19.9 0.5 0 4.2 -1.4 8.3 -3 25 -9.9 67.2 -9.6 92.5 0.6 13.9 5.7 21.3 8.9 21.9 9.8 0.4 0.5 2.7 1.9 5.3 3.1 2.5 1.1 4.6 2.6 4.6 3.2 0 0.6 0.7 1.1 1.6 1.1 3.7 0 35.5 30.6 35.5 34.3 0 0.4 0.9 1.6 1.9 2.7 2.6 2.7 8 11.1 8 12.5 0 0.6 1.2 3.2 2.8 5.8 3.2 5.6 8.3 17.6 8.3 19.9 0 0.9 1.2 5.1 2.7 9.3 2.4 6.9 2.7 10.3 2.7 33.6 0 21.5 -0.4 27.2 -2.2 33.4 -1.2 4.1 -2.5 8.8 -2.8 10.5 -1 5.2 -12.1 29.1 -14.8 31.9 -0.9 0.9 -1.6 2.5 -1.6 3.5 0 1 -0.5 1.7 -1 1.7 -0.5 0 -1.9 1.5 -3 3.5 -3 4.9 -9.3 12.2 -17.3 20 -8.9 8.7 -9 8.7 -17.8 14.3 -4 2.6 -7.5 5.2 -7.9 5.6 -1 1.4 -27.1 13.5 -28.9 13.5 -0.9 0 -4.1 0.9 -7.1 2 -5.4 1.9 -32.9 5.6 -40.1 5.3 -2 -0.1 -9.5 -0.9 -16.7 -1.7z m41.6 -39.6 c13.7 -3.3 32.8 -11.6 37.4 -16.3 0.9 -0.9 2.1 -1.6 2.6 -1.6 1.5 0 17.7 -16.1 22.5 -22.3 6.7 -8.7 12 -19.2 16.8 -33.1 2.8 -8.3 3.3 -12 3.8 -28.7 0.5 -18.8 0.4 -19.5 -3.3 -30.9 -4.3 -13 -10 -26 -11.5 -26 -0.5 0 -1 -1.1 -1 -2.4 0 -1.4 -0.4 -2.6 -0.9 -2.8 -0.6 -0.1 -3.2 -3.1 -5.8 -6.6 -2.7 -3.3 -6.7 -7.9 -8.7 -10 -4 -4 -16.8 -13.7 -21.2 -16.1 -1.4 -0.7 -3.6 -1.9 -4.9 -2.6 -1.4 -0.7 -5.2 -2.5 -8.7 -3.8 -14.2 -5.7 -19.7 -6.8 -37.4 -7.4 -15.3 -0.5 -18.7 -0.2 -26.2 2.1 -4.7 1.5 -9.3 2.6 -10 2.6 -0.9 0 -3.8 1 -6.7 2.4 -2.8 1.2 -6.4 3 -8.2 3.7 -12.2 5.4 -33.9 24.4 -40.2 35 -6.9 11.8 -9.3 16 -9.3 17.1 0 0.7 -0.9 3.1 -2 5.2 -3 5.8 -6.6 22 -7.4 33.5 -0.6 9.5 0 15.1 4.2 34.9 2 9 12.5 28.6 20.7 38 18.6 21.8 35.6 31.3 68 38.5 7.8 1.7 25.5 0.7 37.2 -2.2z"/>
  <path d="M1021.6 311.1 c-13.9 -2.4 -29.6 -8.7 -35.6 -14.2 -1.5 -1.4 -3 -2.5 -3.5 -2.5 -2.1 0 -16.8 -15 -21 -21.4 -8.2 -12.4 -9.2 -14.1 -9.2 -15.2 0 -0.7 -1 -3.5 -2.2 -6.2 -1.4 -2.6 -3.3 -10.3 -4.6 -16.9 -2.6 -14 -2 -26.1 1.7 -39.8 4.1 -15.1 5.4 -17.9 14.1 -30.7 5.8 -8.7 14.1 -16.9 22.8 -22.8 8.7 -5.9 11.8 -7.8 12.9 -7.8 0.6 0 3.3 -1.1 5.9 -2.5 12.4 -6.2 36.2 -8.4 54.5 -5.1 9.6 1.7 34.4 12.9 35.5 15.8 0.4 0.9 1.2 1.6 2.1 1.6 1.9 0 14.3 11.6 14.3 13.4 0 0.7 1.1 2 2.5 2.7 1.4 0.7 2.5 1.9 2.5 2.6 0 0.7 0.7 2.1 1.6 3 3.5 4 4.6 5.6 4.6 6.4 0 0.5 1.1 3.2 2.4 5.9 5.4 11.3 6.7 15.2 8.5 28.1 1.7 12.2 1.7 14.6 -0.1 27 -2 12.9 -2.8 15.8 -8.8 28.4 -5.7 12.2 -18.1 26.6 -30.1 34.8 -12.5 8.7 -22.9 12.9 -38.2 15.3 -13 2.1 -20 2.1 -32.7 0z"/>
  <path d="M730.4 303.5 c-11.1 -1.7 -22.6 -4.6 -26.6 -6.6 -2.4 -1.2 -5.7 -3 -7.4 -3.7 -12.7 -5.9 -28.4 -20 -36.7 -33 -3.3 -5.1 -7.9 -15.2 -11.1 -24.6 -3 -8.8 -3.3 -11.8 -3.5 -26 0 -13.7 0.4 -17.3 3 -24.7 3.7 -11 10.1 -25.4 11.5 -25.4 0.5 0 1 -0.9 1 -1.9 0 -1 1.1 -2.8 2.5 -4 1.4 -1.2 2.5 -2.6 2.5 -3.1 0 -1.1 16.3 -17.1 17.6 -17.1 0.4 0 1.6 -0.9 2.6 -1.9 1 -1 4.6 -3.2 7.9 -4.9 28.8 -15.5 61.3 -15.6 91.2 -0.2 10.5 5.3 28.4 21.9 33.8 31 4.3 7.5 8 16.1 10.9 24.7 2.8 8.5 3.2 11.8 3.1 27.2 0 22 -2.5 31.2 -14.5 51.9 -4.5 7.8 -19.3 21.6 -30.7 28.8 -14.5 9.2 -41.8 15.5 -56.9 13.2z"/>
 </g>
 <g fill="#7bb9ac">
  <path d="M1072.4 1881.3 c0 -0.6 0.9 -1.2 1.9 -1.2 1 0 1.9 0.6 1.9 1.2 0 0.7 -0.9 1.2 -1.9 1.2 -1 0 -1.9 -0.5 -1.9 -1.2z"/>
  <path d="M1105.8 1880 c0 -0.6 1.1 -1.2 2.5 -1.2 1.4 0 2.5 0.6 2.5 1.2 0 0.7 -1.1 1.2 -2.5 1.2 -1.4 0 -2.5 -0.5 -2.5 -1.2z"/>
  <path d="M1118.1 1878.8 c0 -0.6 0.9 -1.2 1.9 -1.2 1 0 1.9 0.6 1.9 1.2 0 0.7 -0.9 1.2 -1.9 1.2 -1 0 -1.9 -0.5 -1.9 -1.2z"/>
  <path d="M1137.9 1876.3 c0 -0.6 0.9 -1.2 1.9 -1.2 1 0 1.9 0.6 1.9 1.2 0 0.7 -0.9 1.2 -1.9 1.2 -1 0 -1.9 -0.5 -1.9 -1.2z"/>
  <path d="M1182.4 1870.1 c0 -0.6 0.9 -1.2 1.9 -1.2 1 0 1.9 0.6 1.9 1.2 0 0.7 -0.9 1.2 -1.9 1.2 -1 0 -1.9 -0.5 -1.9 -1.2z"/>
  <path d="M1194.8 1868.9 c0 -0.6 0.9 -1.2 1.9 -1.2 1 0 1.9 0.6 1.9 1.2 0 0.7 -0.9 1.2 -1.9 1.2 -1 0 -1.9 -0.5 -1.9 -1.2z"/>
  <path d="M1230.7 1861.5 c0 -0.6 0.9 -1.2 1.9 -1.2 1 0 1.9 0.6 1.9 1.2 0 0.7 -0.9 1.2 -1.9 1.2 -1 0 -1.9 -0.5 -1.9 -1.2z"/>
  <path d="M1272.7 1851.8 c0 -1.4 6.1 -3.2 7.2 -2.1 1 0.9 0 1.5 -3.8 2.5 -2 0.5 -3.3 0.4 -3.3 -0.4z"/>
  <path d="M1283.9 1849.1 c0 -0.6 0.9 -1.2 1.9 -1.2 1 0 1.9 0.6 1.9 1.2 0 0.7 -0.9 1.2 -1.9 1.2 -1 0 -1.9 -0.5 -1.9 -1.2z"/>
  <path d="M1304.9 1842.9 c0 -0.6 0.9 -1.2 1.9 -1.2 1 0 1.9 0.6 1.9 1.2 0 0.7 -0.9 1.2 -1.9 1.2 -1 0 -1.9 -0.5 -1.9 -1.2z"/>
  <path d="M2035.9 1152.8 c0 -0.6 2 -1.2 4.3 -1.2 2.4 0 4.3 0.6 4.3 1.2 0 0.7 -2 1.2 -4.3 1.2 -2.4 0 -4.3 -0.5 -4.3 -1.2z"/>
  <path d="M2273.4 1152.8 c0 -0.7 4.7 -1.2 11.8 -1.2 7.1 0 11.8 0.5 11.8 1.2 0 0.7 -4.7 1.2 -11.8 1.2 -7.1 0 -11.8 -0.5 -11.8 -1.2z"/>
  <path d="M2520.7 1152.8 c0 -0.6 2.2 -1.2 4.9 -1.2 2.7 0 4.9 0.6 4.9 1.2 0 0.7 -2.2 1.2 -4.9 1.2 -2.7 0 -4.9 -0.5 -4.9 -1.2z"/>
  <path d="M2682.8 1152.8 c0 -0.6 2.2 -1.2 4.9 -1.2 2.7 0 4.9 0.6 4.9 1.2 0 0.7 -2.2 1.2 -4.9 1.2 -2.7 0 -4.9 -0.5 -4.9 -1.2z"/>
  <path d="M2857.2 1152.8 c0 -0.7 5.3 -1.2 13.6 -1.2 8.3 0 13.6 0.5 13.6 1.2 0 0.7 -5.3 1.2 -13.6 1.2 -8.3 0 -13.6 -0.5 -13.6 -1.2z"/>
  <path d="M2966 1152.8 c0 -0.6 2.2 -1.2 4.9 -1.2 2.7 0 4.9 0.6 4.9 1.2 0 0.7 -2.2 1.2 -4.9 1.2 -2.7 0 -4.9 -0.5 -4.9 -1.2z"/>
  <path d="M3004.3 1152.8 c0 -0.6 2 -1.2 4.3 -1.2 2.4 0 4.3 0.6 4.3 1.2 0 0.7 -2 1.2 -4.3 1.2 -2.4 0 -4.3 -0.5 -4.3 -1.2z"/>
  <path d="M3082.3 1152.8 c0 -0.7 4.1 -1.2 9.9 -1.2 5.8 0 9.9 0.5 9.9 1.2 0 0.7 -4.1 1.2 -9.9 1.2 -5.8 0 -9.9 -0.5 -9.9 -1.2z"/>
  <path d="M2893 1151.5 c0 -0.6 0.9 -1.2 1.9 -1.2 1 0 1.9 0.6 1.9 1.2 0 0.7 -0.9 1.2 -1.9 1.2 -1 0 -1.9 -0.5 -1.9 -1.2z"/>
  <path d="M2899.2 1150.3 c0 -0.6 0.9 -1.2 1.9 -1.2 1 0 1.9 0.6 1.9 1.2 0 0.7 -0.9 1.2 -1.9 1.2 -1 0 -1.9 -0.5 -1.9 -1.2z"/>
  <path d="M3114.4 1150.3 c0 -0.6 0.9 -1.2 1.9 -1.2 1 0 1.9 0.6 1.9 1.2 0 0.7 -0.9 1.2 -1.9 1.2 -1 0 -1.9 -0.5 -1.9 -1.2z"/>
  <path d="M2912.8 1147.8 c0 -0.6 0.9 -1.2 1.9 -1.2 1 0 1.9 0.6 1.9 1.2 0 0.7 -0.9 1.2 -1.9 1.2 -1 0 -1.9 -0.5 -1.9 -1.2z"/>
  <path d="M2222.6 1017.1 c0 -1.2 17.4 -1.6 82.9 -1.6 53.7 0 82.9 0.4 82.9 1.2 0 0.7 -29.4 1.4 -82.9 1.5 -65.7 0.2 -82.9 0 -82.9 -1.1z"/>
  <path d="M2857.2 1010.5 c0 -0.6 0.9 -1.2 1.9 -1.2 1 0 1.9 0.6 1.9 1.2 0 0.7 -0.9 1.2 -1.9 1.2 -1 0 -1.9 -0.5 -1.9 -1.2z"/>
  <path d="M2880.7 1004.3 c0 -0.6 0.9 -1.2 1.9 -1.2 1 0 1.9 0.6 1.9 1.2 0 0.7 -0.9 1.2 -1.9 1.2 -1 0 -1.9 -0.5 -1.9 -1.2z"/>
  <path d="M2899.2 999.4 c0 -0.6 0.9 -1.2 1.9 -1.2 1 0 1.9 0.6 1.9 1.2 0 0.7 -0.9 1.2 -1.9 1.2 -1 0 -1.9 -0.5 -1.9 -1.2z"/>
  <path d="M2910.3 996.9 c0 -0.6 0.9 -1.2 1.9 -1.2 1 0 1.9 0.6 1.9 1.2 0 0.7 -0.9 1.2 -1.9 1.2 -1 0 -1.9 -0.5 -1.9 -1.2z"/>
  <path d="M2917.8 994.4 c0 -0.6 0.9 -1.2 1.9 -1.2 1 0 1.9 0.6 1.9 1.2 0 0.7 -0.9 1.2 -1.9 1.2 -1 0 -1.9 -0.5 -1.9 -1.2z"/>
  <path d="M2931.4 990.7 c0 -0.6 0.9 -1.2 1.9 -1.2 1 0 1.9 0.6 1.9 1.2 0 0.7 -0.9 1.2 -1.9 1.2 -1 0 -1.9 -0.5 -1.9 -1.2z"/>
  <path d="M1741.5 940 c0 -0.6 0.9 -1.2 1.9 -1.2 1 0 1.9 0.6 1.9 1.2 0 0.7 -0.9 1.2 -1.9 1.2 -1 0 -1.9 -0.5 -1.9 -1.2z"/>
  <path d="M1753.9 938.8 c0 -0.6 0.9 -1.2 1.9 -1.2 1 0 1.9 0.6 1.9 1.2 0 0.7 -0.9 1.2 -1.9 1.2 -1 0 -1.9 -0.5 -1.9 -1.2z"/>
  <path d="M1773.7 935.1 c0 -0.6 0.9 -1.2 1.9 -1.2 1 0 1.9 0.6 1.9 1.2 0 0.7 -0.9 1.2 -1.9 1.2 -1 0 -1.9 -0.5 -1.9 -1.2z"/>
  <path d="M2770.6 935.1 c0 -0.6 1.4 -1.2 3.1 -1.2 1.7 0 3.1 0.6 3.1 1.2 0 0.7 -1.4 1.2 -3.1 1.2 -1.7 0 -3.1 -0.5 -3.1 -1.2z"/>
  <path d="M1595.6 649.4 c0 -0.6 0.9 -1.2 1.9 -1.2 1 0 1.9 0.6 1.9 1.2 0 0.7 -0.9 1.2 -1.9 1.2 -1 0 -1.9 -0.5 -1.9 -1.2z"/>
  <path d="M1604.2 648.1 c0 -0.6 1.7 -1.2 3.7 -1.2 2.1 0 3.7 0.6 3.7 1.2 0 0.7 -1.6 1.2 -3.7 1.2 -2 0 -3.7 -0.5 -3.7 -1.2z"/>
  <path d="M1732.8 648.1 c0 -0.6 1.4 -1.2 3.1 -1.2 1.7 0 3.1 0.6 3.1 1.2 0 0.7 -1.4 1.2 -3.1 1.2 -1.7 0 -3.1 -0.5 -3.1 -1.2z"/>
  <path d="M479.9 392.1 c0 -0.6 0.9 -1.2 1.9 -1.2 1 0 1.9 0.6 1.9 1.2 0 0.7 -0.9 1.2 -1.9 1.2 -1 0 -1.9 -0.5 -1.9 -1.2z"/>
  <path d="M1051.1 0.4 c2.8 -0.2 7.3 -0.2 9.9 0 2.5 0.2 0.1 0.5 -5.3 0.5 -5.4 0 -7.5 -0.2 -4.6 -0.5z"/>
 </g>
</svg>